<svg width="268" height="195" viewBox="0 0 268 195" fill="none" xmlns="http://www.w3.org/2000/svg">
<path d="M101.494 173.874C101.491 173.874 101.487 173.874 101.484 173.874C101.292 173.868 101.099 173.86 100.907 173.851C100.748 173.844 100.625 173.71 100.632 173.552C100.639 173.393 100.774 173.268 100.931 173.276C101.122 173.284 101.313 173.292 101.504 173.299C101.663 173.305 101.788 173.438 101.782 173.597C101.775 173.752 101.648 173.874 101.494 173.874ZM99.1968 173.76C99.1905 173.76 99.1847 173.76 99.1784 173.759C98.7987 173.735 98.412 173.708 98.0294 173.679C97.8712 173.667 97.7527 173.528 97.7648 173.37C97.7769 173.211 97.9155 173.093 98.0737 173.105C98.454 173.134 98.8378 173.161 99.2152 173.185C99.374 173.195 99.4942 173.332 99.4839 173.49C99.4741 173.643 99.3475 173.76 99.1968 173.76ZM96.3357 173.531C96.3265 173.531 96.3173 173.531 96.3075 173.53C95.9272 173.493 95.5417 173.454 95.1614 173.412C95.0032 173.395 94.8893 173.253 94.9071 173.094C94.9244 172.936 95.0665 172.823 95.2247 172.84C95.6021 172.882 95.9853 172.921 96.3633 172.957C96.5215 172.972 96.6371 173.113 96.6222 173.272C96.6072 173.42 96.4824 173.531 96.3357 173.531ZM93.4832 173.209C93.4711 173.209 93.4584 173.208 93.4458 173.207C93.0666 173.158 92.6829 173.105 92.3043 173.051C92.1472 173.029 92.0379 172.883 92.0604 172.726C92.0828 172.568 92.2284 172.458 92.386 172.481C92.7623 172.535 93.1437 172.587 93.52 172.636C93.6776 172.656 93.7887 172.8 93.7685 172.958C93.7495 173.103 93.6258 173.209 93.4832 173.209ZM90.6422 172.794C90.6266 172.794 90.6111 172.793 90.5956 172.79C90.2181 172.728 89.8361 172.664 89.4593 172.598C89.3028 172.57 89.1981 172.421 89.2257 172.264C89.2533 172.108 89.4023 172.004 89.5588 172.031C89.9334 172.096 90.3131 172.161 90.6876 172.222C90.8447 172.247 90.9511 172.395 90.9252 172.552C90.9028 172.693 90.7808 172.794 90.6422 172.794ZM87.8156 172.287C87.7971 172.287 87.7787 172.286 87.7603 172.282C87.3864 172.209 87.0066 172.133 86.6309 172.054C86.4756 172.022 86.3755 171.869 86.4083 171.713C86.4405 171.558 86.593 171.457 86.7489 171.49C87.1223 171.568 87.4997 171.645 87.8714 171.717C88.0273 171.748 88.1291 171.899 88.0986 172.055C88.071 172.193 87.9502 172.287 87.8156 172.287ZM85.0056 171.692C84.9843 171.692 84.9631 171.69 84.9412 171.685C84.5684 171.6 84.191 171.511 83.8193 171.421C83.6651 171.384 83.5702 171.228 83.607 171.074C83.6444 170.92 83.7997 170.825 83.9545 170.862C84.3239 170.951 84.699 171.039 85.0695 171.124C85.2243 171.16 85.3215 171.314 85.2858 171.469C85.2559 171.602 85.1374 171.692 85.0056 171.692ZM82.2158 171.008C82.1917 171.008 82.1675 171.005 82.1428 170.999C81.7717 170.901 81.3971 170.801 81.0295 170.7C80.8765 170.658 80.7861 170.5 80.8287 170.346C80.8713 170.192 81.0289 170.102 81.1825 170.145C81.5479 170.245 81.9201 170.345 82.2889 170.442C82.4425 170.482 82.5346 170.639 82.4943 170.793C82.4604 170.923 82.3436 171.008 82.2158 171.008ZM79.4479 170.237C79.4209 170.237 79.3932 170.233 79.3662 170.225C78.9991 170.117 78.6281 170.005 78.2627 169.892C78.1108 169.845 78.0257 169.684 78.0729 169.532C78.12 169.38 78.2811 169.296 78.4324 169.342C78.7955 169.454 79.1643 169.566 79.529 169.674C79.6815 169.719 79.7684 169.879 79.7235 170.031C79.6872 170.156 79.5722 170.237 79.4479 170.237ZM76.7053 169.38C76.6754 169.38 76.6449 169.376 76.615 169.366C76.2531 169.247 75.8854 169.123 75.5218 168.998C75.3717 168.946 75.2917 168.783 75.3429 168.632C75.3947 168.482 75.5581 168.402 75.7082 168.453C76.069 168.578 76.4349 168.7 76.7945 168.819C76.9452 168.868 77.0275 169.031 76.9774 169.182C76.9389 169.304 76.8261 169.38 76.7053 169.38ZM73.9903 168.438C73.9575 168.438 73.9241 168.432 73.8919 168.421C73.5323 168.289 73.1687 168.155 72.8109 168.019C72.6624 167.962 72.5876 167.797 72.6434 167.648C72.6998 167.499 72.8655 167.424 73.0145 167.48C73.3701 167.615 73.732 167.749 74.0892 167.88C74.2383 167.934 74.3154 168.099 74.2613 168.248C74.2181 168.365 74.1077 168.438 73.9903 168.438ZM71.3046 167.412C71.269 167.412 71.2327 167.405 71.1982 167.391C70.8426 167.249 70.4836 167.102 70.1298 166.956C69.9831 166.895 69.9135 166.727 69.9739 166.58C70.0349 166.433 70.2029 166.363 70.3496 166.424C70.7011 166.569 71.0584 166.715 71.4111 166.856C71.5584 166.915 71.6303 167.083 71.5716 167.23C71.5273 167.343 71.4191 167.412 71.3046 167.412ZM68.6529 166.302C68.6144 166.302 68.5753 166.294 68.5379 166.278C68.1869 166.125 67.8325 165.967 67.4833 165.809C67.3383 165.743 67.2739 165.573 67.3394 165.428C67.405 165.283 67.5753 165.219 67.7203 165.284C68.0672 165.441 68.4193 165.597 68.768 165.75C68.9136 165.814 68.9803 165.983 68.9164 166.129C68.8693 166.237 68.7634 166.302 68.6529 166.302ZM66.0357 165.11C65.9943 165.11 65.9523 165.101 65.9126 165.082C65.5668 164.918 65.217 164.749 64.873 164.581C64.7303 164.511 64.6716 164.338 64.7412 164.196C64.8114 164.053 64.9834 163.994 65.1261 164.064C65.4679 164.231 65.8154 164.399 66.1589 164.562C66.3021 164.63 66.3637 164.802 66.2952 164.946C66.2469 165.049 66.1433 165.11 66.0357 165.11ZM63.4577 163.835C63.4134 163.835 63.3685 163.825 63.3265 163.804C62.9842 163.628 62.6401 163.448 62.3036 163.27C62.1632 163.195 62.1097 163.021 62.1839 162.88C62.2581 162.74 62.4324 162.686 62.5728 162.761C62.9076 162.938 63.2494 163.117 63.5894 163.291C63.7309 163.364 63.7862 163.538 63.7137 163.679C63.6631 163.778 63.5624 163.835 63.4577 163.835ZM60.921 162.479C60.8738 162.479 60.8261 162.468 60.7818 162.443C60.4481 162.258 60.1098 162.067 59.7761 161.876C59.638 161.797 59.5903 161.621 59.6691 161.483C59.7479 161.345 59.9234 161.298 60.0615 161.376C60.3929 161.566 60.7289 161.756 61.0608 161.94C61.1995 162.017 61.2501 162.192 61.173 162.331C61.1201 162.426 61.0223 162.479 60.921 162.479ZM255.319 161.373C255.316 161.373 255.312 161.373 255.309 161.373C254.925 161.359 254.537 161.344 254.158 161.326C253.999 161.318 253.877 161.184 253.884 161.025C253.892 160.866 254.028 160.745 254.185 160.751C254.563 160.769 254.948 160.784 255.33 160.797C255.488 160.803 255.613 160.936 255.607 161.095C255.601 161.251 255.473 161.373 255.319 161.373ZM252.452 161.232C252.446 161.232 252.44 161.232 252.434 161.231C252.053 161.207 251.666 161.181 251.286 161.152C251.128 161.14 251.009 161.002 251.021 160.843C251.033 160.685 251.172 160.567 251.329 160.578C251.707 160.606 252.091 160.633 252.47 160.657C252.629 160.667 252.749 160.804 252.739 160.963C252.73 161.114 252.603 161.232 252.452 161.232ZM58.4287 161.043C58.3786 161.043 58.3274 161.029 58.2814 161.002C57.95 160.803 57.618 160.602 57.2941 160.402C57.1589 160.319 57.1169 160.142 57.2003 160.006C57.2838 159.871 57.461 159.829 57.5962 159.913C57.9172 160.111 58.2474 160.311 58.5765 160.508C58.7129 160.59 58.7572 160.766 58.6761 160.903C58.622 160.992 58.5265 161.043 58.4287 161.043ZM249.592 161.008C249.583 161.008 249.575 161.007 249.565 161.007C249.184 160.971 248.8 160.933 248.42 160.893C248.262 160.877 248.148 160.735 248.164 160.577C248.181 160.419 248.323 160.305 248.481 160.321C248.857 160.36 249.24 160.398 249.618 160.434C249.776 160.449 249.893 160.588 249.878 160.747C249.865 160.896 249.74 161.008 249.592 161.008ZM246.742 160.698C246.729 160.698 246.717 160.698 246.706 160.696C246.324 160.648 245.94 160.598 245.566 160.546C245.409 160.524 245.298 160.379 245.32 160.222C245.342 160.064 245.486 159.954 245.644 159.976C246.017 160.027 246.398 160.077 246.778 160.124C246.935 160.144 247.048 160.288 247.028 160.446C247.009 160.592 246.884 160.698 246.742 160.698ZM243.902 160.297C243.887 160.297 243.872 160.296 243.856 160.294C243.476 160.233 243.094 160.17 242.721 160.106C242.565 160.079 242.459 159.93 242.486 159.773C242.513 159.617 242.662 159.512 242.818 159.538C243.188 159.602 243.568 159.665 243.945 159.725C244.103 159.75 244.21 159.897 244.185 160.054C244.164 160.196 244.041 160.297 243.902 160.297ZM241.078 159.8C241.06 159.8 241.041 159.799 241.023 159.795C240.648 159.722 240.268 159.646 239.895 159.568C239.74 159.535 239.64 159.383 239.672 159.227C239.705 159.072 239.857 158.972 240.013 159.004C240.384 159.082 240.76 159.158 241.133 159.23C241.289 159.26 241.39 159.411 241.361 159.567C241.333 159.705 241.213 159.8 241.078 159.8ZM55.9841 159.526C55.9306 159.526 55.8771 159.511 55.8287 159.48C55.5066 159.273 55.1809 159.06 54.8616 158.849C54.7293 158.761 54.693 158.582 54.7805 158.45C54.8679 158.318 55.0469 158.281 55.1792 158.369C55.4962 158.579 55.8195 158.79 56.14 158.996C56.2735 159.081 56.312 159.26 56.2263 159.393C56.1716 159.479 56.079 159.526 55.9841 159.526ZM238.274 159.202C238.252 159.202 238.23 159.2 238.208 159.195C237.835 159.108 237.459 159.018 237.09 158.925C236.936 158.887 236.842 158.731 236.88 158.577C236.919 158.422 237.075 158.328 237.229 158.367C237.596 158.459 237.969 158.548 238.339 158.635C238.494 158.671 238.59 158.825 238.555 158.98C238.523 159.113 238.404 159.202 238.274 159.202ZM235.494 158.498C235.469 158.498 235.444 158.495 235.418 158.488C235.047 158.386 234.674 158.28 234.31 158.174C234.158 158.13 234.07 157.97 234.115 157.817C234.159 157.665 234.32 157.577 234.471 157.622C234.832 157.727 235.202 157.832 235.57 157.933C235.723 157.975 235.813 158.133 235.771 158.287C235.737 158.415 235.621 158.498 235.494 158.498ZM53.5907 157.929C53.5343 157.929 53.4774 157.912 53.4273 157.878C53.1126 157.66 52.7944 157.438 52.4815 157.215C52.352 157.123 52.3215 156.943 52.4136 156.814C52.5056 156.684 52.6851 156.654 52.8146 156.746C53.1253 156.967 53.4411 157.188 53.7541 157.404C53.8847 157.495 53.9175 157.674 53.8272 157.805C53.7719 157.886 53.6822 157.929 53.5907 157.929ZM232.745 157.683C232.717 157.683 232.687 157.678 232.658 157.669C232.294 157.553 231.926 157.431 231.564 157.309C231.414 157.257 231.333 157.094 231.384 156.944C231.435 156.793 231.598 156.712 231.749 156.764C232.107 156.885 232.472 157.005 232.833 157.12C232.985 157.169 233.068 157.33 233.02 157.482C232.981 157.605 232.867 157.683 232.745 157.683ZM230.034 156.75C230.001 156.75 229.967 156.745 229.934 156.732C229.574 156.599 229.212 156.462 228.857 156.324C228.71 156.266 228.636 156.099 228.694 155.951C228.751 155.803 228.918 155.73 229.066 155.788C229.417 155.925 229.777 156.061 230.133 156.193C230.282 156.248 230.359 156.413 230.304 156.562C230.261 156.678 230.151 156.75 230.034 156.75ZM51.252 156.254C51.1921 156.254 51.1323 156.235 51.0805 156.197C50.7716 155.968 50.4615 155.734 50.1577 155.502C50.0311 155.406 50.007 155.226 50.1036 155.099C50.2003 154.973 50.3803 154.948 50.5069 155.045C50.8084 155.275 51.1168 155.507 51.4234 155.735C51.5511 155.829 51.5776 156.01 51.4833 156.137C51.4269 156.214 51.34 156.254 51.252 156.254ZM227.367 155.696C227.329 155.696 227.291 155.689 227.255 155.673C226.902 155.524 226.546 155.369 226.198 155.215C226.053 155.15 225.987 154.98 226.052 154.835C226.116 154.69 226.287 154.624 226.432 154.689C226.777 154.843 227.129 154.996 227.479 155.144C227.625 155.205 227.693 155.375 227.632 155.521C227.585 155.63 227.478 155.696 227.367 155.696ZM224.752 154.515C224.71 154.515 224.667 154.506 224.627 154.486C224.281 154.319 223.933 154.148 223.593 153.975C223.452 153.903 223.395 153.73 223.466 153.589C223.538 153.447 223.712 153.39 223.853 153.462C224.19 153.633 224.534 153.803 224.877 153.968C225.02 154.037 225.08 154.209 225.011 154.352C224.962 154.455 224.859 154.515 224.752 154.515ZM48.9708 154.5C48.9081 154.5 48.8448 154.479 48.7919 154.437C48.4915 154.198 48.1895 153.953 47.8932 153.711C47.7701 153.61 47.7522 153.429 47.8529 153.306C47.9536 153.183 48.1348 153.165 48.2579 153.266C48.5519 153.507 48.8523 153.749 49.1503 153.987C49.2746 154.086 49.2953 154.267 49.1963 154.391C49.1393 154.463 49.0554 154.5 48.9708 154.5ZM222.199 153.203C222.152 153.203 222.105 153.192 222.061 153.168C221.723 152.984 221.385 152.794 221.054 152.604C220.917 152.524 220.869 152.349 220.948 152.211C221.028 152.072 221.203 152.025 221.341 152.105C221.668 152.293 222.003 152.48 222.337 152.664C222.476 152.74 222.528 152.914 222.452 153.054C222.399 153.149 222.301 153.203 222.199 153.203ZM46.7517 152.668C46.6856 152.668 46.6194 152.646 46.5647 152.599C46.2742 152.35 45.9808 152.096 45.692 151.842C45.5729 151.737 45.5608 151.555 45.6661 151.436C45.7708 151.317 45.9526 151.305 46.0722 151.41C46.3588 151.662 46.6499 151.915 46.9387 152.162C47.0595 152.265 47.0739 152.447 46.9703 152.567C46.914 152.634 46.8334 152.668 46.7517 152.668ZM219.718 151.759C219.666 151.759 219.614 151.745 219.567 151.715C219.239 151.512 218.911 151.304 218.592 151.096C218.459 151.009 218.421 150.831 218.508 150.698C218.595 150.564 218.772 150.527 218.906 150.614C219.222 150.819 219.546 151.025 219.87 151.226C220.005 151.31 220.047 151.488 219.963 151.622C219.909 151.71 219.814 151.759 219.718 151.759ZM44.5988 150.76C44.5292 150.76 44.4596 150.735 44.4044 150.684C44.1219 150.425 43.8377 150.16 43.5592 149.897C43.4435 149.787 43.4384 149.605 43.5477 149.49C43.657 149.374 43.8388 149.369 43.9544 149.478C44.2312 149.739 44.5131 150.002 44.7933 150.26C44.9101 150.367 44.9181 150.549 44.8105 150.667C44.7542 150.728 44.6765 150.76 44.5988 150.76ZM217.319 150.178C217.262 150.178 217.205 150.161 217.155 150.126C216.84 149.906 216.524 149.679 216.215 149.452C216.087 149.358 216.06 149.178 216.153 149.05C216.247 148.922 216.427 148.894 216.556 148.988C216.861 149.213 217.173 149.437 217.484 149.655C217.614 149.746 217.646 149.925 217.555 150.055C217.499 150.135 217.41 150.178 217.319 150.178ZM42.5155 148.776C42.4425 148.776 42.3694 148.748 42.3136 148.693C42.0415 148.424 41.767 148.149 41.4978 147.876C41.3862 147.762 41.3879 147.58 41.5012 147.469C41.6146 147.357 41.7964 147.359 41.908 147.472C42.1755 147.744 42.4476 148.017 42.7181 148.284C42.8314 148.395 42.8325 148.578 42.7209 148.691C42.664 148.748 42.5898 148.776 42.5155 148.776ZM215.013 148.462C214.951 148.462 214.888 148.441 214.835 148.399C214.533 148.161 214.23 147.915 213.936 147.671C213.813 147.569 213.796 147.388 213.898 147.266C213.999 147.143 214.181 147.126 214.303 147.228C214.594 147.469 214.893 147.712 215.191 147.948C215.316 148.046 215.337 148.227 215.239 148.352C215.182 148.424 215.098 148.462 215.013 148.462ZM40.5065 146.718C40.43 146.718 40.3534 146.687 40.2971 146.627C40.0353 146.349 39.7712 146.064 39.5123 145.78C39.4053 145.662 39.4133 145.481 39.5307 145.374C39.6481 145.266 39.8299 145.275 39.9369 145.392C40.1941 145.673 40.4558 145.956 40.7159 146.233C40.8246 146.349 40.8195 146.531 40.7032 146.64C40.648 146.692 40.5772 146.718 40.5065 146.718ZM212.81 146.612C212.742 146.612 212.674 146.587 212.619 146.539C212.331 146.282 212.044 146.019 211.763 145.757C211.647 145.648 211.641 145.466 211.75 145.35C211.859 145.234 212.04 145.228 212.157 145.337C212.434 145.596 212.718 145.856 213.002 146.109C213.12 146.215 213.131 146.397 213.025 146.516C212.968 146.579 212.89 146.612 212.81 146.612ZM38.4019 144.824C38.3006 144.824 38.1994 144.824 38.0987 144.822C37.9399 144.82 37.8128 144.689 37.8156 144.53C37.8179 144.372 37.9462 144.246 38.1033 144.246C38.105 144.246 38.1062 144.246 38.1079 144.246C38.1223 144.246 38.1367 144.247 38.1511 144.247C37.9681 144.036 37.7857 143.822 37.6074 143.611C37.505 143.49 37.5199 143.308 37.6413 143.205C37.7627 143.103 37.9439 143.118 38.0469 143.239C38.2914 143.529 38.5429 143.821 38.7937 144.108C38.8282 144.148 38.8501 144.195 38.8593 144.243C38.987 144.24 39.1147 144.236 39.2407 144.23C39.399 144.224 39.5336 144.347 39.5405 144.506C39.5474 144.664 39.4243 144.798 39.2655 144.805C38.9807 144.818 38.6901 144.824 38.4019 144.824ZM36.3819 144.723C36.3721 144.723 36.3629 144.723 36.3531 144.722C35.9694 144.684 35.5805 144.634 35.1973 144.575C35.0402 144.551 34.9326 144.404 34.9568 144.246C34.981 144.089 35.1283 143.982 35.2853 144.006C35.6581 144.063 36.0367 144.112 36.4101 144.149C36.5683 144.165 36.6834 144.306 36.6678 144.464C36.6535 144.613 36.528 144.723 36.3819 144.723ZM40.969 144.653C40.8275 144.653 40.7038 144.549 40.6842 144.404C40.663 144.246 40.7734 144.101 40.9305 144.08C41.3056 144.029 41.6807 143.966 42.0455 143.892C42.2008 143.861 42.3527 143.962 42.3844 144.118C42.416 144.274 42.3147 144.425 42.1594 144.457C41.7826 144.533 41.3954 144.598 41.0082 144.651C40.9949 144.653 40.9817 144.653 40.969 144.653ZM210.721 144.63C210.646 144.63 210.573 144.602 210.516 144.545C210.245 144.272 209.974 143.992 209.709 143.712C209.6 143.597 209.605 143.414 209.721 143.305C209.836 143.195 210.018 143.201 210.127 143.316C210.389 143.593 210.657 143.87 210.925 144.139C211.037 144.252 211.036 144.434 210.924 144.546C210.867 144.603 210.794 144.63 210.721 144.63ZM33.5501 144.246C33.5283 144.246 33.5058 144.244 33.4834 144.238C33.1077 144.148 32.7291 144.047 32.358 143.938C32.2056 143.893 32.1187 143.733 32.1636 143.581C32.2084 143.428 32.3684 143.341 32.5208 143.386C32.8822 143.492 33.2509 143.591 33.6169 143.678C33.7716 143.715 33.8671 143.871 33.8303 144.025C33.7981 144.157 33.6801 144.246 33.5501 144.246ZM43.7726 144.038C43.6501 144.038 43.5362 143.958 43.4982 143.835C43.451 143.683 43.5362 143.522 43.6875 143.475C44.0482 143.363 44.4067 143.237 44.753 143.102C44.9009 143.045 45.0677 143.118 45.1258 143.266C45.1834 143.414 45.1103 143.581 44.9624 143.639C44.6034 143.779 44.2318 143.909 43.8584 144.025C43.8296 144.034 43.8008 144.038 43.7726 144.038ZM30.8058 143.397C30.7713 143.397 30.7367 143.391 30.7028 143.378C30.3409 143.239 29.979 143.088 29.6263 142.931C29.4814 142.866 29.4163 142.696 29.4814 142.55C29.5464 142.405 29.7161 142.34 29.8617 142.405C30.2046 142.559 30.5572 142.705 30.9093 142.84C31.0578 142.897 31.132 143.064 31.075 143.212C31.0302 143.326 30.9214 143.397 30.8058 143.397ZM46.4249 142.942C46.3219 142.942 46.2218 142.886 46.1701 142.788C46.0958 142.647 46.1493 142.473 46.2903 142.399C46.6228 142.223 46.9508 142.033 47.2649 141.834C47.399 141.748 47.5767 141.789 47.6619 141.923C47.747 142.057 47.7073 142.235 47.5727 142.32C47.2459 142.527 46.9048 142.725 46.5584 142.908C46.5164 142.931 46.4704 142.942 46.4249 142.942ZM208.757 142.528C208.677 142.528 208.598 142.494 208.541 142.43C208.288 142.142 208.035 141.847 207.79 141.552C207.688 141.43 207.705 141.249 207.827 141.147C207.949 141.045 208.13 141.062 208.232 141.184C208.474 141.475 208.724 141.766 208.973 142.051C209.078 142.17 209.066 142.352 208.947 142.457C208.892 142.504 208.824 142.528 208.757 142.528ZM36.7283 142.383C36.6443 142.383 36.5608 142.346 36.5045 142.276C36.2634 141.977 36.0223 141.673 35.7864 141.371C35.6886 141.246 35.7111 141.065 35.8359 140.967C35.9613 140.869 36.142 140.891 36.2398 141.017C36.4734 141.316 36.7133 141.618 36.9521 141.914C37.0516 142.038 37.0326 142.219 36.9089 142.319C36.8554 142.362 36.7915 142.383 36.7283 142.383ZM28.2001 142.187C28.1529 142.187 28.1057 142.175 28.0614 142.151C27.7203 141.964 27.382 141.764 27.0563 141.56C26.9217 141.475 26.8809 141.298 26.9654 141.163C27.05 141.028 27.2272 140.987 27.3618 141.072C27.6788 141.271 28.0074 141.465 28.3387 141.647C28.478 141.724 28.5286 141.899 28.4521 142.038C28.3997 142.133 28.3014 142.187 28.2001 142.187ZM48.816 141.355C48.7332 141.355 48.6503 141.319 48.5934 141.249C48.4927 141.127 48.5105 140.945 48.6331 140.844C48.9225 140.606 49.2049 140.354 49.473 140.094C49.587 139.983 49.7693 139.985 49.8798 140.1C49.9903 140.214 49.988 140.396 49.874 140.507C49.5944 140.778 49.3004 141.042 48.9984 141.289C48.9449 141.333 48.8804 141.355 48.816 141.355ZM25.79 140.627C25.7302 140.627 25.6704 140.609 25.6186 140.57C25.3119 140.342 25.0035 140.103 24.7021 139.86C24.5784 139.761 24.5588 139.58 24.6583 139.456C24.7579 139.332 24.9391 139.312 25.0628 139.412C25.3591 139.65 25.6617 139.885 25.962 140.108C26.0898 140.203 26.1162 140.383 26.0213 140.511C25.9643 140.587 25.8775 140.627 25.79 140.627ZM206.932 140.31C206.846 140.31 206.761 140.271 206.704 140.198C206.469 139.893 206.236 139.582 206.01 139.272C205.916 139.144 205.944 138.964 206.072 138.87C206.2 138.776 206.38 138.804 206.474 138.932C206.697 139.238 206.929 139.546 207.16 139.846C207.257 139.972 207.233 140.153 207.107 140.25C207.055 140.29 206.994 140.31 206.932 140.31ZM34.9672 140.111C34.8791 140.111 34.7928 140.07 34.7359 139.995C34.5069 139.688 34.2779 139.374 34.0541 139.064C33.9615 138.935 33.9908 138.755 34.1197 138.662C34.2486 138.569 34.4287 138.599 34.5213 138.728C34.7428 139.036 34.9706 139.346 35.1973 139.651C35.2922 139.779 35.2658 139.959 35.138 140.054C35.0874 140.092 35.027 140.111 34.9672 140.111ZM50.8354 139.315C50.7716 139.315 50.7077 139.293 50.6542 139.25C50.5305 139.15 50.5121 138.969 50.6116 138.846C50.8464 138.556 51.0736 138.252 51.2865 137.944C51.3768 137.813 51.5557 137.78 51.6869 137.87C51.8175 137.96 51.8503 138.139 51.7606 138.271C51.5391 138.592 51.3032 138.907 51.0592 139.208C51.0023 139.278 50.9188 139.315 50.8354 139.315ZM23.5687 138.807C23.5002 138.807 23.4317 138.783 23.3765 138.733C23.0923 138.478 22.8063 138.212 22.5279 137.945C22.4134 137.835 22.4099 137.652 22.5198 137.538C22.6297 137.423 22.8121 137.42 22.9266 137.53C23.2004 137.793 23.4812 138.054 23.7608 138.305C23.8793 138.411 23.8891 138.594 23.7827 138.712C23.7257 138.775 23.6475 138.807 23.5687 138.807ZM205.253 137.98C205.16 137.98 205.07 137.936 205.014 137.853C204.8 137.536 204.587 137.211 204.38 136.888C204.295 136.754 204.334 136.576 204.468 136.49C204.602 136.404 204.78 136.444 204.865 136.578C205.069 136.897 205.28 137.217 205.491 137.531C205.579 137.663 205.545 137.842 205.413 137.93C205.364 137.964 205.308 137.98 205.253 137.98ZM33.2981 137.771C33.2061 137.771 33.1163 137.727 33.0605 137.645C32.8436 137.328 32.6273 137.006 32.4167 136.687C32.3293 136.555 32.3655 136.376 32.4984 136.288C32.6307 136.201 32.8097 136.237 32.8971 136.37C33.106 136.686 33.3206 137.006 33.5357 137.321C33.6255 137.452 33.5921 137.631 33.4609 137.721C33.4109 137.755 33.3539 137.771 33.2981 137.771ZM52.4205 136.924C52.3744 136.924 52.3278 136.913 52.2847 136.89C52.1449 136.814 52.092 136.64 52.1673 136.5C52.3428 136.173 52.5108 135.831 52.6656 135.486C52.7306 135.341 52.9009 135.277 53.0459 135.342C53.1908 135.407 53.2553 135.577 53.1903 135.722C53.0298 136.08 52.8566 136.433 52.6742 136.772C52.6224 136.868 52.5229 136.924 52.4205 136.924ZM21.5141 136.799C21.4376 136.799 21.3617 136.769 21.3047 136.709C21.0424 136.431 20.7794 136.143 20.524 135.854C20.4187 135.735 20.4296 135.553 20.5487 135.448C20.6678 135.342 20.8496 135.353 20.9549 135.473C21.2069 135.757 21.4658 136.04 21.7236 136.314C21.8323 136.43 21.8271 136.612 21.7115 136.721C21.6557 136.773 21.5849 136.799 21.5141 136.799ZM203.723 135.552C203.625 135.552 203.529 135.501 203.475 135.41C203.28 135.079 203.088 134.742 202.902 134.407C202.825 134.268 202.875 134.093 203.013 134.016C203.152 133.939 203.328 133.989 203.405 134.127C203.588 134.458 203.779 134.792 203.971 135.119C204.051 135.256 204.005 135.432 203.868 135.512C203.823 135.539 203.773 135.552 203.723 135.552ZM31.7372 135.357C31.6389 135.357 31.5428 135.307 31.4893 135.216C31.2948 134.885 31.1032 134.545 30.9208 134.203C30.8461 134.062 30.899 133.889 31.0388 133.813C31.1786 133.738 31.3529 133.791 31.4283 133.931C31.6072 134.266 31.7948 134.6 31.9852 134.923C32.0658 135.06 32.0203 135.237 31.8834 135.318C31.8374 135.344 31.7873 135.357 31.7372 135.357ZM19.6253 134.634C19.5413 134.634 19.4585 134.598 19.4015 134.527C19.161 134.229 18.9205 133.922 18.687 133.616C18.5909 133.489 18.615 133.309 18.7416 133.212C18.8682 133.116 19.0483 133.14 19.1449 133.267C19.3751 133.569 19.6121 133.871 19.8491 134.165C19.9492 134.289 19.9297 134.47 19.8066 134.569C19.7525 134.613 19.6886 134.634 19.6253 134.634ZM53.5545 134.285C53.524 134.285 53.4935 134.281 53.463 134.27C53.3122 134.219 53.2311 134.057 53.2817 133.906C53.3997 133.554 53.5102 133.189 53.6091 132.821C53.6505 132.668 53.8082 132.577 53.9618 132.618C54.1154 132.66 54.2063 132.817 54.1649 132.971C54.0631 133.35 53.9497 133.726 53.8277 134.089C53.7869 134.209 53.6747 134.285 53.5545 134.285ZM202.345 133.033C202.24 133.033 202.139 132.976 202.088 132.876C201.915 132.536 201.743 132.187 201.576 131.84C201.508 131.697 201.568 131.525 201.711 131.456C201.855 131.388 202.027 131.448 202.095 131.591C202.26 131.934 202.429 132.279 202.601 132.615C202.673 132.756 202.616 132.93 202.475 133.002C202.433 133.023 202.389 133.033 202.345 133.033ZM30.4076 132.81C30.2989 132.81 30.1948 132.748 30.1459 132.642C29.9854 132.294 29.8289 131.936 29.681 131.579C29.62 131.432 29.6896 131.263 29.8363 131.203C29.9831 131.142 30.1516 131.211 30.212 131.358C30.357 131.709 30.5106 132.06 30.6683 132.402C30.7344 132.546 30.6717 132.717 30.5273 132.783C30.4888 132.801 30.4479 132.81 30.4076 132.81ZM17.8999 132.336C17.809 132.336 17.7198 132.292 17.6634 132.212C17.4442 131.898 17.2262 131.575 17.0145 131.253C16.927 131.12 16.9644 130.942 17.0967 130.855C17.2296 130.768 17.408 130.804 17.4949 130.937C17.7031 131.255 17.9183 131.573 18.1346 131.883C18.2255 132.014 18.1933 132.193 18.0633 132.284C18.0138 132.319 17.9569 132.336 17.8999 132.336ZM54.265 131.501C54.2477 131.501 54.2305 131.499 54.2132 131.496C54.0567 131.468 53.9532 131.318 53.9819 131.162C54.0487 130.795 54.1074 130.418 54.1563 130.039C54.177 129.882 54.3208 129.771 54.4784 129.791C54.6361 129.812 54.7471 129.955 54.7264 130.113C54.6758 130.501 54.6159 130.888 54.5475 131.264C54.5222 131.403 54.4013 131.501 54.265 131.501ZM201.118 130.436C201.007 130.436 200.902 130.372 200.855 130.263C200.701 129.912 200.55 129.554 200.404 129.199C200.344 129.052 200.414 128.884 200.561 128.824C200.709 128.763 200.877 128.834 200.936 128.981C201.08 129.331 201.23 129.685 201.382 130.033C201.446 130.179 201.379 130.349 201.234 130.412C201.195 130.428 201.156 130.436 201.118 130.436ZM29.3323 130.145C29.2138 130.145 29.1022 130.071 29.0608 129.952C28.9336 129.589 28.8111 129.218 28.6972 128.85C28.65 128.698 28.7352 128.537 28.8865 128.489C29.0384 128.442 29.1994 128.527 29.2466 128.679C29.3588 129.04 29.4791 129.405 29.6039 129.761C29.6563 129.911 29.5774 130.075 29.4279 130.128C29.3956 130.14 29.3634 130.145 29.3323 130.145ZM16.3379 129.922C16.2401 129.922 16.1451 129.872 16.0911 129.782C15.8931 129.453 15.6975 129.116 15.5082 128.781C15.43 128.643 15.4789 128.468 15.6176 128.389C15.7556 128.311 15.9317 128.36 16.0094 128.498C16.1958 128.828 16.3891 129.161 16.5841 129.486C16.6658 129.622 16.6215 129.799 16.4857 129.881C16.4397 129.909 16.3885 129.922 16.3379 129.922ZM54.6027 128.646C54.597 128.646 54.5912 128.646 54.5855 128.645C54.4267 128.636 54.3058 128.5 54.3156 128.341C54.3375 127.968 54.3524 127.585 54.3582 127.203C54.3611 127.045 54.4928 126.916 54.6505 126.92C54.8093 126.923 54.9358 127.054 54.9335 127.213C54.9272 127.602 54.9122 127.994 54.8898 128.375C54.8806 128.528 54.754 128.646 54.6027 128.646ZM200.042 127.772C199.926 127.772 199.816 127.7 199.773 127.584C199.639 127.225 199.507 126.859 199.382 126.496C199.33 126.346 199.41 126.182 199.559 126.13C199.709 126.078 199.873 126.158 199.925 126.307C200.049 126.666 200.179 127.028 200.312 127.383C200.367 127.532 200.291 127.698 200.142 127.753C200.109 127.766 200.076 127.772 200.042 127.772ZM14.941 127.408C14.8368 127.408 14.7356 127.351 14.6849 127.252C14.5089 126.909 14.3357 126.56 14.1694 126.214C14.101 126.071 14.1608 125.899 14.3041 125.83C14.4473 125.761 14.6194 125.821 14.6878 125.965C14.8518 126.306 15.0227 126.651 15.1964 126.989C15.2689 127.13 15.2131 127.304 15.0716 127.376C15.0301 127.398 14.9853 127.408 14.941 127.408ZM28.505 127.392C28.3761 127.392 28.2594 127.305 28.2266 127.174C28.1322 126.801 28.0436 126.42 27.9631 126.044C27.9297 125.889 28.0286 125.736 28.184 125.702C28.3393 125.669 28.4924 125.768 28.5257 125.923C28.6051 126.293 28.6926 126.666 28.7846 127.034C28.8238 127.188 28.73 127.345 28.5764 127.383C28.5516 127.389 28.528 127.392 28.505 127.392ZM54.6223 125.771C54.4692 125.771 54.3415 125.65 54.3352 125.495C54.3191 125.12 54.2955 124.738 54.2656 124.358C54.2529 124.199 54.3709 124.061 54.5296 124.048C54.6879 124.035 54.8265 124.153 54.8392 124.312C54.8702 124.7 54.8938 125.089 54.9105 125.471C54.9174 125.63 54.7943 125.764 54.6355 125.771C54.6303 125.771 54.6263 125.771 54.6223 125.771ZM199.115 125.051C198.992 125.051 198.878 124.972 198.84 124.849C198.727 124.484 198.616 124.112 198.509 123.742C198.464 123.589 198.552 123.43 198.705 123.386C198.858 123.341 199.017 123.429 199.061 123.582C199.167 123.948 199.277 124.317 199.39 124.678C199.437 124.83 199.353 124.991 199.201 125.038C199.172 125.047 199.143 125.051 199.115 125.051ZM13.7138 124.807C13.6022 124.807 13.4963 124.742 13.4497 124.633C13.2967 124.279 13.1471 123.919 13.005 123.563C12.9463 123.415 13.0176 123.248 13.1655 123.189C13.3128 123.13 13.4802 123.201 13.5395 123.349C13.6798 123.7 13.8277 124.056 13.9784 124.406C14.0411 124.552 13.9744 124.721 13.8283 124.784C13.7903 124.799 13.7517 124.807 13.7138 124.807ZM27.9262 124.575C27.7876 124.575 27.665 124.475 27.6426 124.333C27.5816 123.952 27.527 123.566 27.4804 123.184C27.4608 123.026 27.573 122.882 27.7306 122.863C27.8877 122.844 28.0321 122.956 28.0511 123.114C28.0971 123.489 28.1512 123.868 28.2104 124.243C28.2358 124.4 28.1288 124.547 27.9717 124.572C27.9567 124.574 27.9412 124.575 27.9262 124.575ZM54.3697 122.907C54.2276 122.907 54.1039 122.802 54.0849 122.657C54.0354 122.284 53.9791 121.904 53.9169 121.529C53.891 121.372 53.9969 121.224 54.154 121.198C54.3104 121.172 54.4589 121.278 54.4848 121.435C54.5481 121.816 54.605 122.203 54.6556 122.582C54.6764 122.74 54.5659 122.884 54.4083 122.905C54.395 122.906 54.3824 122.907 54.3697 122.907ZM198.332 122.285C198.204 122.285 198.087 122.199 198.053 122.069C197.959 121.698 197.866 121.321 197.779 120.946C197.743 120.791 197.839 120.636 197.994 120.6C198.148 120.564 198.303 120.66 198.339 120.815C198.426 121.186 198.518 121.56 198.612 121.926C198.651 122.081 198.558 122.237 198.404 122.276C198.38 122.282 198.355 122.285 198.332 122.285ZM12.6649 122.128C12.5464 122.128 12.4354 122.055 12.3934 121.936C12.2651 121.572 12.1408 121.203 12.024 120.838C11.9757 120.687 12.0591 120.525 12.2104 120.476C12.3617 120.428 12.5234 120.511 12.5723 120.662C12.6874 121.022 12.8099 121.386 12.9365 121.745C12.9894 121.895 12.9106 122.059 12.761 122.112C12.7288 122.123 12.6966 122.128 12.6649 122.128ZM27.6006 121.718C27.4504 121.718 27.3244 121.602 27.3141 121.45C27.2876 121.064 27.2686 120.674 27.2565 120.29C27.2519 120.131 27.3762 119.998 27.535 119.994C27.695 119.988 27.8267 120.113 27.8313 120.272C27.8428 120.649 27.8618 121.032 27.8877 121.41C27.8986 121.568 27.7789 121.706 27.6202 121.717C27.6138 121.718 27.6075 121.718 27.6006 121.718ZM53.8789 120.074C53.746 120.074 53.6269 119.981 53.5982 119.846C53.5194 119.478 53.4331 119.103 53.3427 118.734C53.3048 118.579 53.3991 118.423 53.5533 118.385C53.7075 118.347 53.8634 118.442 53.9014 118.596C53.9934 118.971 54.0809 119.351 54.1609 119.725C54.1942 119.881 54.0953 120.034 53.9399 120.067C53.9192 120.072 53.8991 120.074 53.8789 120.074ZM197.69 119.483C197.556 119.483 197.436 119.389 197.408 119.253C197.333 118.878 197.258 118.496 197.189 118.118C197.16 117.962 197.264 117.812 197.419 117.783C197.576 117.754 197.726 117.858 197.754 118.014C197.823 118.389 197.896 118.767 197.972 119.138C198.003 119.294 197.903 119.446 197.747 119.477C197.728 119.481 197.709 119.483 197.69 119.483ZM11.8077 119.383C11.6811 119.383 11.5649 119.299 11.5304 119.171C11.4924 119.032 11.4556 118.894 11.4199 118.755C11.3595 118.522 11.2997 118.285 11.2427 118.049C11.2053 117.895 11.3003 117.739 11.4544 117.701C11.6086 117.664 11.7645 117.759 11.8019 117.913C11.8583 118.146 11.917 118.38 11.9763 118.61C12.0119 118.746 12.0482 118.883 12.0856 119.02C12.1276 119.173 12.0367 119.331 11.8836 119.373C11.8583 119.38 11.833 119.383 11.8077 119.383ZM27.5408 118.844C27.5385 118.844 27.5356 118.844 27.5327 118.844C27.3739 118.84 27.2485 118.708 27.2531 118.549C27.2635 118.162 27.2819 117.771 27.3072 117.388C27.3175 117.229 27.455 117.109 27.6133 117.12C27.772 117.13 27.8917 117.268 27.8814 117.426C27.856 117.802 27.8382 118.184 27.8284 118.564C27.8238 118.72 27.6961 118.844 27.5408 118.844ZM53.1684 117.288C53.0447 117.288 52.9308 117.208 52.8928 117.083C52.7835 116.72 52.6656 116.355 52.5436 115.998C52.4918 115.848 52.5724 115.684 52.7225 115.633C52.8727 115.581 53.0367 115.662 53.0879 115.812C53.2127 116.175 53.3324 116.547 53.444 116.917C53.49 117.069 53.4037 117.23 53.2518 117.276C53.2236 117.284 53.196 117.288 53.1684 117.288ZM197.184 116.653C197.045 116.653 196.922 116.551 196.9 116.409C196.842 116.032 196.785 115.648 196.734 115.266C196.712 115.108 196.822 114.963 196.98 114.941C197.138 114.92 197.282 115.03 197.304 115.188C197.356 115.567 197.411 115.948 197.469 116.321C197.493 116.478 197.385 116.625 197.229 116.649C197.213 116.652 197.198 116.653 197.184 116.653ZM11.1507 116.584C11.0166 116.584 10.8964 116.49 10.8688 116.353C10.794 115.977 10.7226 115.594 10.6576 115.214C10.6306 115.058 10.7359 114.909 10.8923 114.882C11.0488 114.855 11.1978 114.96 11.2249 115.116C11.2893 115.491 11.3595 115.869 11.4332 116.24C11.4642 116.396 11.363 116.547 11.2071 116.578C11.1886 116.582 11.1697 116.584 11.1507 116.584ZM27.7686 115.98C27.7542 115.98 27.7398 115.979 27.7254 115.976C27.5684 115.953 27.4602 115.806 27.4838 115.649C27.5413 115.267 27.6167 114.879 27.707 114.497C27.7433 114.342 27.898 114.246 28.0534 114.283C28.2081 114.319 28.3037 114.475 28.2674 114.629C28.1805 114.997 28.1086 115.369 28.0534 115.735C28.0315 115.877 27.9084 115.98 27.7686 115.98ZM52.2099 114.577C52.0966 114.577 51.989 114.51 51.9435 114.398C51.7991 114.045 51.6466 113.694 51.4907 113.353C51.4246 113.209 51.4879 113.038 51.6323 112.972C51.7767 112.906 51.9476 112.969 52.0137 113.113C52.1731 113.461 52.329 113.82 52.4763 114.18C52.5367 114.327 52.4659 114.495 52.3192 114.555C52.283 114.57 52.2461 114.577 52.2099 114.577ZM196.808 113.802C196.663 113.802 196.539 113.693 196.523 113.546C196.482 113.165 196.443 112.778 196.408 112.397C196.394 112.238 196.51 112.099 196.668 112.084C196.826 112.07 196.966 112.185 196.981 112.344C197.016 112.722 197.054 113.105 197.096 113.483C197.113 113.641 196.999 113.783 196.841 113.8C196.829 113.802 196.819 113.802 196.808 113.802ZM10.6818 113.748C10.5397 113.748 10.416 113.642 10.397 113.497C10.3469 113.118 10.3009 112.731 10.2601 112.348C10.2434 112.19 10.3579 112.048 10.5155 112.031C10.6737 112.015 10.8152 112.129 10.8319 112.287C10.8722 112.666 10.9177 113.048 10.9671 113.422C10.9878 113.58 10.8768 113.725 10.7197 113.745C10.7071 113.747 10.6944 113.748 10.6818 113.748ZM28.4809 113.199C28.4481 113.199 28.4153 113.193 28.383 113.182C28.2335 113.128 28.1564 112.963 28.211 112.813C28.3434 112.449 28.4912 112.083 28.6517 111.727C28.7167 111.582 28.887 111.518 29.032 111.583C29.177 111.648 29.2414 111.818 29.1764 111.963C29.0222 112.306 28.8796 112.658 28.7518 113.009C28.7087 113.127 28.5982 113.199 28.4809 113.199ZM50.981 111.978C50.8792 111.978 50.7802 111.924 50.7278 111.828C50.5455 111.492 50.355 111.161 50.1617 110.844C50.0789 110.708 50.122 110.531 50.2578 110.448C50.3936 110.365 50.5708 110.409 50.653 110.544C50.851 110.87 51.0466 111.209 51.2336 111.553C51.3095 111.693 51.2577 111.868 51.1179 111.944C51.0748 111.967 51.0276 111.978 50.981 111.978ZM196.558 110.939C196.408 110.939 196.281 110.822 196.272 110.67C196.246 110.288 196.224 109.9 196.205 109.518C196.197 109.359 196.32 109.224 196.479 109.216C196.635 109.208 196.772 109.33 196.78 109.489C196.799 109.869 196.821 110.253 196.846 110.632C196.856 110.791 196.736 110.928 196.578 110.939C196.571 110.938 196.564 110.939 196.558 110.939ZM10.3964 110.886C10.2462 110.886 10.1202 110.77 10.1099 110.618C10.084 110.236 10.0621 109.847 10.0455 109.463C10.0385 109.304 10.1617 109.17 10.3205 109.163C10.4781 109.156 10.6133 109.279 10.6202 109.438C10.6369 109.818 10.6582 110.202 10.6841 110.58C10.695 110.738 10.5753 110.875 10.4165 110.886C10.4096 110.886 10.4033 110.886 10.3964 110.886ZM29.7057 110.601C29.6563 110.601 29.6056 110.589 29.5602 110.562C29.4233 110.481 29.3778 110.304 29.4583 110.167C29.6563 109.832 29.8686 109.5 30.0895 109.181C30.1798 109.05 30.3593 109.018 30.4899 109.108C30.6205 109.199 30.6527 109.378 30.5624 109.509C30.349 109.816 30.1441 110.136 29.9537 110.46C29.9002 110.551 29.8041 110.601 29.7057 110.601ZM49.4523 109.547C49.3637 109.547 49.2763 109.506 49.2199 109.429C48.9944 109.12 48.7608 108.819 48.5249 108.536C48.4236 108.414 48.4403 108.232 48.5623 108.13C48.6843 108.028 48.8661 108.046 48.9673 108.168C49.2107 108.461 49.4523 108.771 49.6848 109.09C49.7785 109.218 49.7504 109.398 49.6221 109.492C49.5703 109.528 49.511 109.547 49.4523 109.547ZM31.3874 108.272C31.3201 108.272 31.2528 108.248 31.1982 108.201C31.0785 108.096 31.067 107.914 31.1717 107.794C31.43 107.499 31.7016 107.213 31.9783 106.943C32.0922 106.832 32.274 106.835 32.3851 106.948C32.4961 107.062 32.4932 107.244 32.3799 107.355C32.1141 107.614 31.8529 107.89 31.6043 108.173C31.5468 108.239 31.4674 108.272 31.3874 108.272ZM196.429 108.067C196.274 108.067 196.146 107.943 196.142 107.786C196.132 107.406 196.126 107.017 196.123 106.632C196.121 106.473 196.249 106.343 196.408 106.342C196.409 106.342 196.41 106.342 196.41 106.342C196.568 106.342 196.697 106.469 196.698 106.627C196.701 107.009 196.708 107.395 196.717 107.772C196.721 107.931 196.595 108.062 196.436 108.066C196.434 108.067 196.432 108.067 196.429 108.067ZM10.2888 108.013C10.1312 108.013 10.0023 107.886 10.0012 107.727C10 107.605 10 107.484 10 107.362C10 107.1 10.0023 106.834 10.0063 106.57C10.0086 106.412 10.141 106.282 10.2986 106.287C10.4574 106.29 10.584 106.421 10.5817 106.58C10.5776 106.84 10.5753 107.103 10.5753 107.362C10.5753 107.482 10.5759 107.603 10.5765 107.723C10.5776 107.882 10.4499 108.012 10.2911 108.014C10.2905 108.013 10.2894 108.013 10.2888 108.013ZM47.5762 107.372C47.5043 107.372 47.4318 107.345 47.376 107.291C47.1032 107.026 46.8208 106.774 46.5371 106.54C46.4146 106.439 46.3967 106.258 46.4974 106.135C46.5981 106.012 46.7799 105.994 46.9025 106.095C47.1982 106.339 47.4922 106.602 47.7764 106.877C47.8903 106.988 47.8932 107.17 47.7827 107.284C47.7263 107.343 47.6515 107.372 47.5762 107.372ZM33.4874 106.313C33.4 106.313 33.3137 106.273 33.2573 106.199C33.1618 106.071 33.1871 105.891 33.3142 105.796C33.6295 105.558 33.9557 105.335 34.2842 105.131C34.4194 105.047 34.5966 105.089 34.6801 105.225C34.7635 105.36 34.7221 105.537 34.5869 105.621C34.2733 105.815 33.9615 106.028 33.66 106.256C33.6082 106.294 33.5472 106.313 33.4874 106.313ZM45.318 105.603C45.2668 105.603 45.215 105.59 45.1678 105.561C44.8474 105.365 44.5165 105.184 44.1852 105.025C44.0419 104.956 43.9815 104.784 44.0499 104.641C44.1184 104.498 44.2904 104.437 44.4337 104.506C44.7829 104.674 45.1304 104.864 45.4681 105.07C45.6034 105.153 45.6459 105.331 45.5631 105.466C45.5096 105.555 45.4146 105.603 45.318 105.603ZM196.417 105.193C196.415 105.193 196.414 105.193 196.412 105.193C196.253 105.191 196.127 105.06 196.129 104.901C196.135 104.518 196.144 104.13 196.155 103.747C196.16 103.588 196.291 103.465 196.452 103.468C196.611 103.473 196.735 103.606 196.73 103.764C196.719 104.145 196.709 104.531 196.704 104.91C196.702 105.067 196.574 105.193 196.417 105.193ZM10.3515 105.139C10.3469 105.139 10.3418 105.139 10.3366 105.138C10.1778 105.13 10.0558 104.995 10.0639 104.836C10.0829 104.454 10.107 104.066 10.1352 103.682C10.1467 103.523 10.2848 103.405 10.443 103.416C10.6012 103.427 10.7203 103.565 10.7088 103.724C10.6812 104.103 10.6576 104.487 10.6386 104.865C10.6306 105.019 10.504 105.139 10.3515 105.139ZM35.9636 104.866C35.852 104.866 35.7456 104.801 35.699 104.691C35.6363 104.545 35.7042 104.376 35.8497 104.313C36.2139 104.156 36.5867 104.02 36.9572 103.906C37.1091 103.86 37.2702 103.945 37.3162 104.097C37.3629 104.249 37.2771 104.41 37.1252 104.457C36.7743 104.565 36.4216 104.694 36.0758 104.843C36.0396 104.858 36.001 104.866 35.9636 104.866ZM42.7025 104.437C42.6761 104.437 42.649 104.434 42.622 104.426C42.2664 104.322 41.9005 104.238 41.5352 104.175C41.3787 104.148 41.2734 103.999 41.3004 103.842C41.3275 103.686 41.4765 103.58 41.633 103.607C42.0196 103.674 42.4068 103.763 42.7831 103.873C42.9355 103.918 43.0236 104.078 42.9787 104.23C42.9424 104.356 42.8274 104.437 42.7025 104.437ZM38.7229 104.107C38.5803 104.107 38.456 104.001 38.4376 103.855C38.418 103.698 38.5296 103.554 38.6873 103.534C39.0785 103.485 39.4755 103.459 39.8673 103.458C39.8679 103.458 39.8684 103.458 39.8684 103.458C40.0266 103.458 40.1555 103.585 40.1561 103.744C40.1567 103.903 40.0289 104.033 39.8696 104.033C39.5002 104.035 39.1268 104.059 38.758 104.105C38.7465 104.106 38.7344 104.107 38.7229 104.107ZM196.517 102.32C196.512 102.32 196.506 102.32 196.501 102.319C196.342 102.31 196.221 102.175 196.23 102.016C196.25 101.633 196.274 101.246 196.3 100.864C196.311 100.706 196.449 100.585 196.607 100.597C196.765 100.608 196.885 100.745 196.874 100.904C196.848 101.282 196.824 101.667 196.804 102.047C196.795 102.201 196.669 102.32 196.517 102.32ZM10.5759 102.272C10.5656 102.272 10.5558 102.272 10.5454 102.271C10.3872 102.254 10.2727 102.112 10.2894 101.954C10.3297 101.574 10.3745 101.188 10.4229 100.806C10.443 100.648 10.5868 100.536 10.7445 100.557C10.9021 100.577 11.0137 100.721 10.9936 100.878C10.9453 101.257 10.901 101.639 10.8613 102.015C10.8457 102.163 10.7209 102.272 10.5759 102.272ZM196.726 99.452C196.717 99.452 196.708 99.4514 196.699 99.4509C196.541 99.4365 196.425 99.296 196.439 99.1377C196.474 98.7555 196.512 98.3687 196.553 97.9888C196.57 97.8305 196.712 97.716 196.869 97.7333C197.028 97.75 197.142 97.8921 197.125 98.0499C197.085 98.4269 197.047 98.8108 197.012 99.1901C196.998 99.3398 196.872 99.452 196.726 99.452ZM10.9533 99.4221C10.9384 99.4221 10.9228 99.4209 10.9079 99.4186C10.7508 99.3939 10.6438 99.2465 10.6691 99.0894C10.7289 98.7124 10.794 98.329 10.8619 97.9497C10.89 97.7931 11.0396 97.6889 11.1961 97.7172C11.3526 97.7454 11.4567 97.895 11.4286 98.051C11.3612 98.4263 11.2968 98.8062 11.2375 99.1792C11.2145 99.3214 11.092 99.4221 10.9533 99.4221ZM11.4752 96.5947C11.4556 96.5947 11.4355 96.5924 11.4159 96.5884C11.2606 96.5556 11.161 96.4031 11.1938 96.2476C11.2726 95.8729 11.3561 95.4936 11.4424 95.1189C11.478 94.964 11.6328 94.8673 11.7876 94.903C11.9423 94.9387 12.039 95.093 12.0033 95.2478C11.9182 95.6185 11.8353 95.995 11.7571 96.3656C11.7277 96.5021 11.6081 96.5947 11.4752 96.5947ZM197.04 96.5942C197.028 96.5942 197.016 96.5936 197.003 96.5919C196.846 96.5717 196.735 96.4272 196.755 96.2695C196.793 95.9765 196.833 95.6772 196.875 95.3791L196.91 95.1258C196.933 94.9687 197.079 94.8587 197.236 94.8817C197.393 94.9042 197.502 95.0498 197.48 95.2075L197.444 95.4596C197.403 95.7549 197.362 96.0525 197.325 96.3432C197.307 96.4882 197.183 96.5942 197.04 96.5942ZM142.512 94.3694C142.353 94.3694 142.224 94.2411 142.224 94.0822C142.224 93.9234 142.353 93.7944 142.511 93.7938C142.894 93.7933 143.277 93.7915 143.659 93.7887C143.66 93.7887 143.661 93.7887 143.661 93.7887C143.819 93.7887 143.948 93.9159 143.949 94.0742C143.95 94.233 143.823 94.3631 143.664 94.3643C143.281 94.3671 142.893 94.3689 142.512 94.3694C142.512 94.3694 142.512 94.3694 142.512 94.3694ZM140.788 94.3637C140.787 94.3637 140.786 94.3637 140.785 94.3637C140.402 94.3602 140.014 94.3556 139.634 94.3499C139.475 94.3476 139.348 94.2163 139.35 94.0575C139.353 93.8986 139.484 93.7737 139.643 93.7743C140.025 93.78 140.408 93.7846 140.791 93.7881C140.949 93.7892 141.077 93.9193 141.076 94.0782C141.074 94.2365 140.945 94.3637 140.788 94.3637ZM145.386 94.3418C145.23 94.3418 145.102 94.2163 145.099 94.0592C145.096 93.9003 145.222 93.7691 145.381 93.7662C145.764 93.7593 146.146 93.7513 146.529 93.7415C146.531 93.7415 146.533 93.7415 146.536 93.7415C146.692 93.7415 146.82 93.8658 146.824 94.0224C146.828 94.1812 146.703 94.313 146.544 94.3171C146.16 94.3269 145.776 94.3349 145.393 94.3418C145.39 94.3418 145.388 94.3418 145.386 94.3418ZM137.914 94.3142C137.912 94.3142 137.909 94.3142 137.906 94.3142C137.524 94.3044 137.137 94.2935 136.755 94.2808C136.596 94.2756 136.472 94.1427 136.477 93.9838C136.482 93.8249 136.613 93.7 136.774 93.7052C137.154 93.7173 137.54 93.7288 137.921 93.738C138.08 93.742 138.205 93.8744 138.201 94.0333C138.197 94.1904 138.069 94.3142 137.914 94.3142ZM148.259 94.2653C148.105 94.2653 147.978 94.1432 147.972 93.9872C147.967 93.8284 148.091 93.6948 148.25 93.6897C148.632 93.6764 149.014 93.6615 149.397 93.6459C149.557 93.6396 149.69 93.7628 149.696 93.9216C149.702 94.0805 149.579 94.2146 149.421 94.2209C149.037 94.2371 148.654 94.2515 148.27 94.2653C148.266 94.2653 148.263 94.2653 148.259 94.2653ZM135.041 94.2169C135.037 94.2169 135.033 94.2169 135.029 94.2169C134.647 94.2008 134.26 94.183 133.878 94.1645C133.72 94.1565 133.598 94.0218 133.605 93.8629C133.613 93.7041 133.748 93.582 133.907 93.5895C134.287 93.6079 134.672 93.6258 135.053 93.6419C135.212 93.6488 135.335 93.7829 135.329 93.9418C135.322 94.096 135.195 94.2169 135.041 94.2169ZM151.131 94.1404C150.979 94.1404 150.852 94.0212 150.844 93.8675C150.836 93.7087 150.958 93.5734 151.116 93.5653C151.498 93.5458 151.88 93.5245 152.262 93.502C152.42 93.4928 152.557 93.6137 152.566 93.7725C152.575 93.9314 152.454 94.0673 152.295 94.0765C151.912 94.0989 151.529 94.1202 151.145 94.1398C151.141 94.1404 151.136 94.1404 151.131 94.1404ZM132.171 94.0713C132.165 94.0713 132.159 94.0713 132.154 94.0707C131.774 94.0483 131.387 94.0241 131.004 93.9988C130.845 93.9884 130.726 93.8514 130.736 93.6925C130.746 93.5337 130.884 93.414 131.042 93.4243C131.424 93.4496 131.809 93.4732 132.188 93.4957C132.346 93.5049 132.467 93.6413 132.458 93.8002C132.449 93.9539 132.322 94.0713 132.171 94.0713ZM154 93.9677C153.851 93.9677 153.724 93.8514 153.714 93.6994C153.703 93.5406 153.822 93.4036 153.981 93.3927C154.363 93.3662 154.745 93.3391 155.126 93.3103C155.284 93.2977 155.422 93.4174 155.434 93.5757C155.447 93.734 155.327 93.8721 155.169 93.8842C154.787 93.913 154.403 93.9406 154.02 93.9671C154.013 93.9677 154.007 93.9677 154 93.9677ZM129.303 93.8779C129.296 93.8779 129.288 93.8773 129.282 93.8773C128.9 93.8485 128.513 93.8174 128.134 93.7864C127.976 93.7731 127.858 93.6344 127.871 93.4755C127.884 93.3172 128.023 93.1998 128.182 93.2125C128.56 93.2436 128.945 93.2747 129.326 93.3034C129.484 93.3155 129.603 93.4537 129.591 93.612C129.578 93.7628 129.452 93.8779 129.303 93.8779ZM12.1333 93.7962C12.1092 93.7962 12.085 93.7933 12.0608 93.7869C11.9072 93.7466 11.8152 93.5895 11.8549 93.4358C11.951 93.0657 12.0522 92.6904 12.1558 92.3203C12.1984 92.1672 12.3571 92.078 12.5102 92.1206C12.6632 92.1632 12.7524 92.322 12.7098 92.4751C12.6074 92.8424 12.5067 93.2142 12.4112 93.5803C12.3779 93.7104 12.2611 93.7962 12.1333 93.7962ZM197.456 93.7489C197.44 93.7489 197.425 93.7478 197.41 93.7455C197.253 93.7202 197.146 93.5722 197.171 93.4157C197.233 93.0358 197.297 92.653 197.362 92.2783C197.39 92.1217 197.539 92.017 197.696 92.044C197.852 92.0711 197.957 92.2202 197.93 92.3767C197.865 92.7491 197.801 93.1296 197.74 93.5072C197.716 93.6488 197.594 93.7489 197.456 93.7489ZM156.866 93.7467C156.718 93.7467 156.593 93.6333 156.579 93.4836C156.566 93.3253 156.683 93.186 156.841 93.1722C157.219 93.14 157.603 93.1054 157.984 93.0703C158.143 93.0559 158.282 93.1722 158.297 93.3305C158.312 93.4888 158.195 93.6287 158.037 93.6436C157.655 93.6787 157.269 93.7133 156.89 93.7461C156.883 93.7461 156.874 93.7467 156.866 93.7467ZM126.439 93.6356C126.43 93.6356 126.422 93.635 126.412 93.6344C126.03 93.5987 125.645 93.5619 125.266 93.5239C125.108 93.5084 124.993 93.3673 125.009 93.209C125.024 93.0508 125.165 92.935 125.323 92.9512C125.701 92.9886 126.085 93.026 126.466 93.0611C126.624 93.0761 126.74 93.2159 126.726 93.3742C126.712 93.5239 126.586 93.6356 126.439 93.6356ZM159.728 93.4773C159.582 93.4773 159.457 93.3668 159.442 93.2188C159.426 93.0605 159.541 92.9195 159.698 92.9034C160.076 92.8648 160.459 92.824 160.84 92.7825C160.997 92.7653 161.139 92.8792 161.157 93.0375C161.174 93.1958 161.06 93.3374 160.902 93.3547C160.52 93.3967 160.135 93.4375 159.756 93.4761C159.747 93.4767 159.737 93.4773 159.728 93.4773ZM123.579 93.3455C123.569 93.3455 123.558 93.3449 123.548 93.3437C123.168 93.3017 122.783 93.2585 122.403 93.2136C122.246 93.1952 122.132 93.0525 122.151 92.8942C122.169 92.7365 122.313 92.6231 122.47 92.6415C122.848 92.6858 123.232 92.729 123.61 92.771C123.768 92.7883 123.883 92.9304 123.865 93.0887C123.849 93.2367 123.724 93.3455 123.579 93.3455ZM162.585 93.1595C162.441 93.1595 162.317 93.0519 162.299 92.9057C162.28 92.748 162.393 92.6047 162.551 92.5857C162.93 92.5402 163.314 92.493 163.69 92.4452C163.848 92.4256 163.991 92.5367 164.012 92.6945C164.032 92.8522 163.92 92.9961 163.762 93.0162C163.384 93.064 163 93.1118 162.619 93.1572C162.607 93.1584 162.596 93.1595 162.585 93.1595ZM120.725 93.007C120.713 93.007 120.701 93.0064 120.688 93.0047C120.309 92.9563 119.925 92.9063 119.546 92.8556C119.389 92.8343 119.278 92.6898 119.3 92.5321C119.321 92.3744 119.465 92.2645 119.623 92.2852C120 92.3358 120.383 92.3859 120.761 92.4337C120.919 92.4538 121.03 92.5978 121.01 92.7555C120.992 92.9011 120.868 93.007 120.725 93.007ZM165.436 92.7929C165.294 92.7929 165.171 92.6881 165.151 92.5442C165.129 92.3865 165.239 92.2415 165.397 92.2202C165.773 92.1684 166.155 92.1148 166.534 92.0601C166.691 92.0377 166.837 92.1465 166.859 92.3042C166.882 92.4613 166.773 92.6075 166.616 92.63C166.236 92.6847 165.852 92.7388 165.475 92.79C165.461 92.7923 165.448 92.7929 165.436 92.7929ZM117.877 92.6202C117.863 92.6202 117.85 92.619 117.836 92.6173C117.459 92.5626 117.076 92.5062 116.697 92.4487C116.54 92.4251 116.431 92.2783 116.455 92.1212C116.479 91.964 116.625 91.8558 116.782 91.8794C117.16 91.9364 117.542 91.9928 117.918 92.0475C118.075 92.0699 118.184 92.2161 118.161 92.3733C118.141 92.5172 118.018 92.6202 117.877 92.6202ZM168.28 92.3784C168.141 92.3784 168.018 92.2766 167.996 92.1344C167.972 91.9772 168.08 91.8305 168.237 91.8063C168.613 91.7482 168.995 91.6877 169.371 91.6273C169.527 91.602 169.675 91.7084 169.7 91.8656C169.726 92.0227 169.619 92.1701 169.462 92.1954C169.085 92.2564 168.702 92.3169 168.325 92.375C168.309 92.3773 168.294 92.3784 168.28 92.3784ZM115.036 92.1856C115.021 92.1856 115.006 92.1845 114.99 92.1816C114.615 92.1206 114.233 92.0578 113.854 91.9939C113.698 91.9675 113.592 91.819 113.618 91.6624C113.645 91.5058 113.793 91.3999 113.949 91.4264C114.326 91.4903 114.708 91.553 115.082 91.6135C115.239 91.6388 115.345 91.7867 115.32 91.9433C115.297 92.0849 115.175 92.1856 115.036 92.1856ZM171.116 91.9157C170.979 91.9157 170.857 91.8167 170.833 91.6768C170.806 91.5202 170.912 91.3711 171.068 91.3447C171.446 91.2796 171.826 91.2128 172.199 91.1461C172.355 91.1179 172.505 91.2221 172.532 91.3786C172.56 91.5352 172.456 91.6848 172.3 91.7125C171.926 91.7792 171.544 91.8466 171.165 91.9116C171.149 91.9145 171.133 91.9157 171.116 91.9157ZM112.203 91.7021C112.186 91.7021 112.169 91.7004 112.152 91.6975C111.773 91.6296 111.392 91.5599 111.019 91.4903C110.863 91.4609 110.759 91.3107 110.789 91.1547C110.818 90.9987 110.968 90.8951 111.124 90.9245C111.496 90.9935 111.876 91.0632 112.253 91.1311C112.409 91.1593 112.513 91.309 112.485 91.465C112.461 91.6048 112.34 91.7021 112.203 91.7021ZM173.945 91.4045C173.81 91.4045 173.689 91.3084 173.663 91.1703C173.633 91.0143 173.736 90.8635 173.892 90.8341C174.267 90.7627 174.647 90.6896 175.019 90.6165C175.175 90.586 175.326 90.6873 175.357 90.8433C175.387 90.9993 175.286 91.1507 175.13 91.1812C174.756 91.2549 174.376 91.328 173.999 91.3999C173.981 91.4028 173.963 91.4045 173.945 91.4045ZM109.378 91.1708C109.36 91.1708 109.341 91.1691 109.323 91.1651C108.946 91.0908 108.566 91.0148 108.193 90.9389C108.037 90.9072 107.937 90.7552 107.969 90.5993C108.001 90.4433 108.152 90.3431 108.308 90.3748C108.68 90.4508 109.059 90.5267 109.434 90.6004C109.59 90.6309 109.691 90.7823 109.66 90.9383C109.633 91.0759 109.513 91.1708 109.378 91.1708ZM12.9204 91.031C12.8922 91.031 12.8629 91.0269 12.8347 91.0177C12.6828 90.9705 12.5982 90.8088 12.646 90.6574C12.7604 90.2907 12.8824 89.9206 13.0096 89.5568C13.0619 89.4066 13.2259 89.3278 13.3761 89.3801C13.5262 89.4325 13.605 89.5966 13.5527 89.7468C13.4278 90.1048 13.3076 90.4692 13.1948 90.8295C13.1569 90.9521 13.0429 91.031 12.9204 91.031ZM197.958 90.9181C197.94 90.9181 197.922 90.9164 197.903 90.913C197.747 90.883 197.645 90.7317 197.675 90.5757C197.748 90.1992 197.824 89.8187 197.901 89.4446C197.933 89.2886 198.086 89.189 198.241 89.2207C198.397 89.2529 198.496 89.4049 198.465 89.5609C198.388 89.9327 198.312 90.3109 198.24 90.685C198.213 90.8226 198.093 90.9181 197.958 90.9181ZM176.764 90.845C176.631 90.845 176.511 90.7518 176.483 90.6154C176.451 90.46 176.551 90.3074 176.706 90.2752C177.077 90.1981 177.455 90.1186 177.829 90.038C177.985 90.0047 178.138 90.1037 178.171 90.2591C178.204 90.4145 178.105 90.5676 177.95 90.601C177.574 90.6816 177.195 90.7616 176.823 90.8387C176.803 90.8427 176.784 90.845 176.764 90.845ZM106.563 90.5912C106.543 90.5912 106.523 90.5889 106.502 90.5849C106.127 90.5043 105.749 90.4214 105.377 90.3391C105.222 90.3046 105.124 90.1509 105.158 89.996C105.193 89.8406 105.347 89.7428 105.501 89.7773C105.871 89.8596 106.249 89.9419 106.623 90.0225C106.778 90.0559 106.877 90.209 106.844 90.3644C106.815 90.4991 106.696 90.5912 106.563 90.5912ZM179.574 90.2366C179.442 90.2366 179.323 90.1457 179.294 90.0121C179.258 89.8573 179.356 89.703 179.511 89.6679C179.884 89.5839 180.26 89.4976 180.63 89.4118C180.785 89.3755 180.94 89.4722 180.975 89.6271C181.011 89.7819 180.915 89.9367 180.76 89.9724C180.389 90.0588 180.012 90.1451 179.638 90.2297C179.616 90.2343 179.595 90.2366 179.574 90.2366ZM103.758 89.9632C103.736 89.9632 103.714 89.9609 103.692 89.9557C103.318 89.8688 102.942 89.7796 102.572 89.6904C102.417 89.6535 102.322 89.4981 102.359 89.3433C102.396 89.189 102.552 89.0935 102.706 89.1309C103.075 89.2195 103.451 89.3082 103.823 89.3951C103.978 89.4314 104.074 89.5856 104.038 89.7405C104.007 89.8734 103.889 89.9632 103.758 89.9632ZM182.373 89.5804C182.243 89.5804 182.125 89.4924 182.094 89.3606C182.056 89.2063 182.151 89.0503 182.305 89.0129C182.675 88.9225 183.05 88.8299 183.419 88.7372C183.573 88.6986 183.729 88.7919 183.768 88.9461C183.807 89.1004 183.714 89.2564 183.56 89.2955C183.19 89.3882 182.813 89.4814 182.442 89.5724C182.418 89.5776 182.395 89.5804 182.373 89.5804ZM100.965 89.2869C100.942 89.2869 100.918 89.284 100.895 89.2783C100.522 89.185 100.147 89.0889 99.7785 88.9939C99.6248 88.9542 99.5322 88.7971 99.5719 88.6434C99.6116 88.4897 99.7687 88.397 99.9223 88.4367C100.289 88.5317 100.663 88.6272 101.034 88.7205C101.189 88.7591 101.282 88.9156 101.243 89.0699C101.21 89.2 101.093 89.2869 100.965 89.2869ZM185.159 88.8753C185.031 88.8753 184.915 88.7896 184.881 88.6606C184.841 88.507 184.933 88.3498 185.087 88.3095C185.453 88.2134 185.826 88.1144 186.196 88.0148C186.349 87.9734 186.507 88.0643 186.549 88.218C186.59 88.3717 186.499 88.5294 186.345 88.5708C185.974 88.671 185.6 88.7706 185.232 88.8667C185.208 88.8725 185.183 88.8753 185.159 88.8753ZM98.1831 88.5628C98.1583 88.5628 98.133 88.5593 98.1083 88.553C97.7395 88.4534 97.3655 88.3515 96.9973 88.2491C96.8443 88.2065 96.7545 88.0482 96.7971 87.8951C96.8397 87.742 96.9985 87.6522 97.1509 87.6948C97.518 87.7967 97.8902 87.8985 98.2579 87.9975C98.4115 88.039 98.5024 88.1967 98.4609 88.3504C98.4258 88.4782 98.3096 88.5628 98.1831 88.5628ZM13.8893 88.3251C13.853 88.3251 13.8168 88.3181 13.7811 88.3038C13.6338 88.2439 13.563 88.0764 13.6229 87.929C13.7673 87.5722 13.9203 87.213 14.0762 86.8619C14.1407 86.7168 14.311 86.6512 14.456 86.7157C14.6009 86.7801 14.6665 86.9505 14.6021 87.0956C14.4485 87.4409 14.2983 87.7943 14.1562 88.1455C14.1108 88.2571 14.0032 88.3251 13.8893 88.3251ZM187.933 88.1224C187.807 88.1224 187.692 88.0396 187.657 87.9124C187.613 87.7592 187.703 87.6004 187.856 87.5572C188.222 87.4542 188.593 87.3483 188.96 87.2429C189.113 87.1986 189.272 87.2872 189.316 87.4398C189.36 87.5923 189.272 87.7518 189.119 87.7961C188.751 87.902 188.379 88.0079 188.012 88.1115C187.985 88.119 187.959 88.1224 187.933 88.1224ZM198.547 88.1046C198.526 88.1046 198.505 88.1023 198.483 88.0977C198.328 88.0626 198.231 87.9083 198.266 87.7535C198.351 87.3765 198.439 86.9983 198.528 86.6299C198.564 86.4751 198.72 86.3801 198.874 86.4169C199.029 86.4538 199.124 86.6092 199.087 86.764C199 87.1307 198.912 87.506 198.828 87.8807C198.797 88.0142 198.679 88.1046 198.547 88.1046ZM95.4146 87.7897C95.3881 87.7897 95.3616 87.7863 95.3346 87.7782C94.9669 87.6723 94.5953 87.5635 94.2288 87.4553C94.0763 87.4104 93.9895 87.2498 94.0349 87.0979C94.0798 86.9453 94.2397 86.8584 94.3922 86.9033C94.757 87.0115 95.1275 87.1197 95.4939 87.2251C95.6464 87.2694 95.7345 87.4288 95.6907 87.5814C95.6545 87.708 95.5394 87.7897 95.4146 87.7897ZM190.693 87.3206C190.57 87.3206 190.455 87.24 190.418 87.1157C190.372 86.9632 190.458 86.8032 190.61 86.7571C190.975 86.6478 191.345 86.5355 191.709 86.4233C191.861 86.3766 192.022 86.4618 192.068 86.6138C192.115 86.7658 192.03 86.9269 191.878 86.9735C191.513 87.0858 191.142 87.1986 190.776 87.3085C190.748 87.3166 190.721 87.3206 190.693 87.3206ZM92.6599 86.9689C92.6317 86.9689 92.6035 86.9649 92.5753 86.9563C92.2076 86.8435 91.8377 86.7278 91.4758 86.6138C91.3245 86.566 91.2399 86.4043 91.2877 86.2529C91.3354 86.1015 91.4971 86.0175 91.6484 86.0647C92.0091 86.1786 92.3779 86.2932 92.7444 86.406C92.8963 86.4526 92.9815 86.6138 92.9349 86.7658C92.8963 86.8895 92.783 86.9689 92.6599 86.9689ZM193.439 86.4705C193.317 86.4705 193.205 86.3922 193.165 86.2702C193.117 86.1188 193.201 85.957 193.352 85.9087C193.717 85.7918 194.085 85.6733 194.444 85.5558C194.595 85.5063 194.757 85.5886 194.807 85.74C194.856 85.8908 194.774 86.0537 194.623 86.1032C194.262 86.2212 193.894 86.3404 193.527 86.4572C193.497 86.4664 193.468 86.4705 193.439 86.4705ZM89.9195 86.0998C89.8902 86.0998 89.8597 86.0952 89.8304 86.0854C89.4668 85.9662 89.0985 85.8448 88.7367 85.7233C88.5859 85.6727 88.5048 85.5098 88.5549 85.359C88.6055 85.2082 88.7683 85.127 88.919 85.1771C89.2798 85.298 89.6463 85.4194 90.0087 85.5374C90.1595 85.5869 90.2423 85.7492 90.1928 85.9006C90.1537 86.0226 90.0409 86.0998 89.9195 86.0998ZM15.0779 85.7078C15.0342 85.7078 14.9899 85.698 14.9484 85.6767C14.8069 85.6048 14.75 85.4321 14.8213 85.2899C14.995 84.9457 15.1768 84.6003 15.361 84.2636C15.4375 84.1243 15.6118 84.0731 15.7516 84.1496C15.8908 84.2262 15.942 84.4012 15.8655 84.5405C15.6843 84.872 15.5054 85.2116 15.3345 85.5501C15.2844 85.6497 15.1832 85.7078 15.0779 85.7078ZM196.169 85.572C196.05 85.572 195.937 85.4966 195.897 85.3763C195.845 85.2254 195.926 85.0625 196.077 85.0113C196.437 84.8887 196.803 84.7638 197.162 84.6389C197.312 84.5865 197.476 84.6665 197.528 84.8168C197.58 84.967 197.501 85.131 197.35 85.1828C196.99 85.3078 196.623 85.4338 196.261 85.5564C196.231 85.5673 196.2 85.572 196.169 85.572ZM199.224 85.3106C199.2 85.3106 199.176 85.3078 199.152 85.3014C198.998 85.2617 198.906 85.1046 198.945 84.9509C198.976 84.83 199.008 84.7086 199.04 84.5871C199.02 84.594 199 84.6015 198.98 84.6084C198.831 84.6619 198.666 84.5842 198.613 84.4346C198.559 84.2849 198.637 84.1203 198.786 84.0668C198.931 84.015 199.076 83.9626 199.221 83.9096C199.228 83.8849 199.235 83.8601 199.242 83.8354C199.283 83.6817 199.441 83.5913 199.595 83.6333C199.652 83.6489 199.7 83.6805 199.736 83.722C199.779 83.7064 199.822 83.6903 199.865 83.6748C200.015 83.6201 200.18 83.6966 200.235 83.8457C200.289 83.9948 200.213 84.1606 200.064 84.2153C199.943 84.2596 199.821 84.3039 199.699 84.3482C199.633 84.5975 199.567 84.8473 199.503 85.0942C199.469 85.2249 199.352 85.3106 199.224 85.3106ZM87.1959 85.1828C87.1648 85.1828 87.1326 85.1777 87.1016 85.1667C86.7397 85.0412 86.3738 84.9129 86.0148 84.7857C85.8652 84.7327 85.7863 84.5681 85.8399 84.4184C85.8928 84.2688 86.0573 84.1899 86.2069 84.2435C86.5648 84.3707 86.9295 84.4985 87.2903 84.6234C87.4404 84.6752 87.5198 84.8392 87.468 84.9894C87.426 85.108 87.315 85.1828 87.1959 85.1828ZM84.4878 84.2176C84.455 84.2176 84.4217 84.2118 84.3889 84.1997C84.0316 84.0685 83.6685 83.9338 83.309 83.7991C83.16 83.7433 83.0846 83.5775 83.1404 83.4284C83.1962 83.2793 83.3619 83.2039 83.5109 83.2598C83.8693 83.3939 84.2312 83.528 84.5873 83.6587C84.7364 83.7133 84.8129 83.8785 84.7582 84.0276C84.7157 84.145 84.6052 84.2176 84.4878 84.2176ZM201.58 83.6305C201.463 83.6305 201.354 83.5597 201.31 83.4445C201.254 83.296 201.329 83.1297 201.477 83.0733C201.833 82.9386 202.194 82.7999 202.549 82.6623C202.698 82.6047 202.864 82.6784 202.921 82.8269C202.979 82.9754 202.905 83.1418 202.757 83.1993C202.401 83.3375 202.039 83.4762 201.681 83.6115C201.648 83.6247 201.614 83.6305 201.58 83.6305ZM81.7981 83.2039C81.7636 83.2039 81.7285 83.1976 81.6946 83.1844C81.3367 83.0462 80.976 82.9046 80.6216 82.7647C80.4737 82.7066 80.4012 82.5391 80.4599 82.3912C80.5186 82.2433 80.6854 82.1707 80.8333 82.2294C81.1866 82.3687 81.5461 82.5098 81.9023 82.6473C82.0507 82.7049 82.1244 82.8712 82.0668 83.0197C82.0225 83.1337 81.9132 83.2039 81.7981 83.2039ZM16.4794 83.1976C16.4282 83.1976 16.3758 83.1838 16.3292 83.155C16.194 83.0715 16.1515 82.8943 16.2349 82.759C16.4368 82.4303 16.6468 82.1011 16.8591 81.781C16.9466 81.6487 17.1255 81.6124 17.2578 81.6999C17.3902 81.7879 17.4264 81.9664 17.339 82.0988C17.1307 82.4136 16.9241 82.7371 16.7256 83.06C16.6704 83.1487 16.5761 83.1976 16.4794 83.1976ZM204.258 82.5875C204.143 82.5875 204.036 82.519 203.991 82.4061C203.932 82.2588 204.004 82.0913 204.151 82.032C204.506 81.8904 204.864 81.7454 205.215 81.602C205.362 81.5422 205.53 81.6124 205.59 81.7597C205.65 81.9071 205.58 82.0752 205.433 82.135C205.08 82.2789 204.72 82.424 204.365 82.5667C204.33 82.5811 204.294 82.5875 204.258 82.5875ZM199.987 82.542C199.96 82.542 199.932 82.538 199.905 82.5305C199.753 82.4862 199.666 82.3261 199.71 82.1736C199.817 81.8069 199.928 81.4357 200.039 81.0713C200.086 80.9194 200.247 80.8336 200.398 80.8802C200.55 80.9268 200.636 81.0874 200.59 81.2394C200.479 81.602 200.369 81.9704 200.262 82.3354C200.226 82.4608 200.111 82.542 199.987 82.542ZM79.1263 82.1425C79.09 82.1425 79.0532 82.1356 79.0181 82.1212C78.6643 81.9767 78.3059 81.8294 77.9532 81.6826C77.8065 81.6216 77.7369 81.4529 77.7978 81.3062C77.8588 81.1594 78.0274 81.0897 78.1741 81.1508C78.5256 81.297 78.8829 81.4443 79.2356 81.5882C79.3829 81.6481 79.4537 81.8162 79.3933 81.9635C79.3472 82.0746 79.2396 82.1425 79.1263 82.1425ZM206.917 81.4961C206.805 81.4961 206.698 81.4299 206.652 81.32C206.59 81.1738 206.659 81.0046 206.805 80.943C207.083 80.8261 207.361 80.7081 207.639 80.5895L207.861 80.494C208.007 80.4313 208.176 80.4986 208.239 80.6448C208.302 80.791 208.235 80.9602 208.088 81.023L207.865 81.1185C207.587 81.2377 207.308 81.3557 207.029 81.4737C206.992 81.4892 206.954 81.4961 206.917 81.4961ZM76.4746 81.0328C76.4366 81.0328 76.3981 81.0253 76.3612 81.0092C76.0103 80.8589 75.6547 80.7047 75.3044 80.551C75.1588 80.4871 75.0926 80.3179 75.1559 80.1722C75.2198 80.0266 75.3889 79.9604 75.5345 80.0237C75.8837 80.1768 76.2381 80.33 76.5879 80.4802C76.7341 80.5429 76.8014 80.7122 76.7392 80.8584C76.6921 80.9677 76.5856 81.0328 76.4746 81.0328ZM18.0875 80.8146C18.0282 80.8146 17.9678 80.7962 17.9166 80.7582C17.7889 80.6638 17.7618 80.4836 17.8562 80.3559C18.0857 80.045 18.3233 79.7354 18.5627 79.4349C18.6616 79.3106 18.8423 79.2898 18.9671 79.3888C19.0914 79.4878 19.1121 79.6692 19.0132 79.7935C18.7784 80.0888 18.5449 80.3933 18.3193 80.6983C18.2624 80.7743 18.1755 80.8146 18.0875 80.8146ZM209.555 80.3564C209.444 80.3564 209.339 80.2925 209.292 80.1855C209.228 80.0404 209.293 79.87 209.438 79.8056C209.79 79.6496 210.142 79.4913 210.484 79.3359C210.629 79.2703 210.799 79.3342 210.865 79.4792C210.931 79.6237 210.867 79.7946 210.722 79.8603C210.378 80.0163 210.024 80.1751 209.671 80.3317C209.634 80.3484 209.594 80.3564 209.555 80.3564ZM73.8424 79.8764C73.8033 79.8764 73.763 79.8683 73.7251 79.8511C73.3758 79.6945 73.026 79.5368 72.6757 79.3785C72.5307 79.3129 72.4668 79.1425 72.5318 78.9974C72.5974 78.8524 72.7677 78.7885 72.9127 78.8535C73.2625 79.0118 73.6117 79.169 73.9604 79.3255C74.1054 79.3906 74.1704 79.5609 74.1054 79.706C74.057 79.8131 73.9523 79.8764 73.8424 79.8764ZM200.833 79.8004C200.804 79.8004 200.774 79.7958 200.744 79.786C200.593 79.7365 200.511 79.5742 200.56 79.4234C200.678 79.0619 200.799 78.6941 200.923 78.3309C200.974 78.1801 201.137 78.0995 201.287 78.1507C201.438 78.202 201.519 78.3654 201.467 78.5157C201.345 78.8771 201.224 79.2426 201.107 79.6018C201.067 79.7233 200.955 79.8004 200.833 79.8004ZM212.169 79.1626C212.061 79.1626 211.958 79.1016 211.909 78.9974C211.841 78.8535 211.903 78.682 212.047 78.6147C212.395 78.4512 212.743 78.2848 213.082 78.1219C213.226 78.0529 213.398 78.1133 213.466 78.2561C213.535 78.3994 213.475 78.5715 213.332 78.64C212.991 78.804 212.642 78.971 212.292 79.135C212.252 79.154 212.21 79.1626 212.169 79.1626ZM71.2229 78.6912C71.1833 78.6912 71.1424 78.6832 71.1038 78.6653L70.055 78.187C69.9106 78.1208 69.8467 77.9504 69.9123 77.8059C69.9785 77.6615 70.1488 77.5976 70.2932 77.6638L71.342 78.1421C71.4864 78.2083 71.5503 78.3787 71.4847 78.5231C71.437 78.6285 71.3323 78.6912 71.2229 78.6912ZM19.8975 78.5807C19.8296 78.5807 19.7611 78.5565 19.7064 78.5082C19.5879 78.4028 19.577 78.2209 19.6823 78.1018C19.9389 77.8123 20.2041 77.525 20.4693 77.2476C20.5792 77.1331 20.761 77.1285 20.8761 77.2384C20.9912 77.3483 20.9952 77.5302 20.8853 77.6453C20.6253 77.9176 20.3652 78.1996 20.1132 78.4834C20.0557 78.5485 19.9769 78.5807 19.8975 78.5807ZM214.755 77.9084C214.65 77.9084 214.548 77.8503 214.498 77.7495C214.426 77.6074 214.484 77.4347 214.626 77.3633C214.969 77.1918 215.313 77.0168 215.649 76.8447C215.79 76.7722 215.964 76.828 216.036 76.969C216.109 77.1106 216.053 77.2839 215.912 77.3564C215.574 77.5297 215.228 77.7052 214.884 77.8779C214.842 77.8986 214.799 77.9084 214.755 77.9084ZM68.6029 77.4968C68.5632 77.4968 68.5229 77.4888 68.4838 77.4709C68.1351 77.3121 67.7853 77.1538 67.4355 76.9955C67.2905 76.9299 67.2267 76.7595 67.2917 76.6144C67.3573 76.4694 67.5276 76.4055 67.6726 76.4705C68.0229 76.6288 68.3727 76.7877 68.722 76.9466C68.8664 77.0122 68.9302 77.1831 68.8647 77.3276C68.8169 77.4341 68.7122 77.4968 68.6029 77.4968ZM201.763 77.0836C201.731 77.0836 201.698 77.0778 201.666 77.0663C201.516 77.0128 201.439 76.8476 201.492 76.6979C201.622 76.337 201.755 75.9726 201.887 75.6158C201.943 75.4667 202.108 75.3913 202.257 75.4465C202.406 75.5018 202.482 75.6676 202.427 75.8167C202.294 76.1718 202.162 76.5339 202.034 76.8925C201.992 77.0105 201.881 77.0836 201.763 77.0836ZM217.309 76.5874C217.206 76.5874 217.107 76.5321 217.055 76.4354C216.98 76.2956 217.033 76.1212 217.173 76.0457C217.511 75.865 217.85 75.6808 218.181 75.4984C218.32 75.4218 218.495 75.4724 218.572 75.6117C218.648 75.751 218.597 75.926 218.458 76.0026C218.126 76.1856 217.785 76.371 217.444 76.5528C217.401 76.5759 217.354 76.5874 217.309 76.5874ZM21.9036 76.5224C21.8266 76.5224 21.75 76.4918 21.6931 76.4308C21.5849 76.3146 21.5912 76.1327 21.7075 76.0239C21.9905 75.7597 22.2811 75.4989 22.5722 75.248C22.6924 75.1444 22.8742 75.1576 22.9778 75.2779C23.0814 75.3982 23.0681 75.5801 22.9479 75.6837C22.6631 75.9295 22.3777 76.1856 22.1004 76.4446C22.0446 76.497 21.9744 76.5224 21.9036 76.5224ZM65.9805 76.3134C65.9414 76.3134 65.9017 76.3053 65.8637 76.2881C65.5139 76.1321 65.1641 75.9767 64.8132 75.8218C64.6676 75.7579 64.602 75.5881 64.6659 75.4425C64.7297 75.2969 64.8995 75.2313 65.045 75.2952C65.3965 75.45 65.7475 75.606 66.0979 75.7626C66.2429 75.827 66.3079 75.9974 66.2434 76.1425C66.1951 76.2501 66.0904 76.3134 65.9805 76.3134ZM219.823 75.1927C219.723 75.1927 219.626 75.1409 219.573 75.0482C219.494 74.9107 219.542 74.7345 219.679 74.6551C220.011 74.4646 220.344 74.27 220.669 74.0772C220.806 73.996 220.982 74.0415 221.063 74.1779C221.144 74.3149 221.099 74.4911 220.963 74.5722C220.635 74.7662 220.3 74.9619 219.966 75.1541C219.921 75.18 219.871 75.1927 219.823 75.1927ZM63.3472 75.157C63.3092 75.157 63.2707 75.1495 63.2333 75.1334C62.8737 74.9786 62.5187 74.8272 62.1775 74.6827C62.0314 74.6211 61.9624 74.4519 62.0245 74.3057C62.0861 74.1595 62.2552 74.091 62.4014 74.1526C62.7437 74.2971 63.0998 74.449 63.4605 74.6044C63.6067 74.6672 63.674 74.8364 63.6113 74.9826C63.5647 75.092 63.4588 75.157 63.3472 75.157ZM24.0991 74.6678C24.0122 74.6678 23.9265 74.6286 23.8701 74.5544C23.7741 74.4277 23.7982 74.2476 23.9248 74.1509C24.2326 73.916 24.5485 73.6858 24.8632 73.4659C24.9932 73.375 25.1727 73.4066 25.2636 73.5373C25.3545 73.6674 25.3229 73.847 25.1923 73.9379C24.8839 74.1532 24.5749 74.3794 24.2734 74.6091C24.2217 74.6482 24.1601 74.6678 24.0991 74.6678ZM202.772 74.3932C202.737 74.3932 202.702 74.3869 202.668 74.373C202.52 74.3149 202.447 74.148 202.505 74.0001C202.643 73.6455 202.787 73.2852 202.931 72.9289C202.991 72.7815 203.158 72.7107 203.306 72.77C203.453 72.8299 203.524 72.9974 203.464 73.1447C203.321 73.4993 203.178 73.8573 203.04 74.2102C202.996 74.3241 202.887 74.3932 202.772 74.3932ZM60.6966 74.0444C60.6604 74.0444 60.6236 74.0375 60.5879 74.0231C60.2283 73.8763 59.871 73.7324 59.5247 73.5954C59.3768 73.5367 59.3049 73.3698 59.363 73.2218C59.4217 73.0739 59.5886 73.002 59.7364 73.0601C60.0845 73.1982 60.4441 73.3427 60.8048 73.4901C60.9521 73.5499 61.0229 73.718 60.9624 73.8654C60.9181 73.9765 60.8106 74.0444 60.6966 74.0444ZM222.292 73.718C222.196 73.718 222.101 73.6697 222.047 73.5816C221.963 73.4463 222.005 73.269 222.14 73.1856C222.464 72.9841 222.791 72.7786 223.11 72.5743C223.243 72.4885 223.422 72.5277 223.507 72.6612C223.593 72.7953 223.554 72.9732 223.42 73.059C223.099 73.2644 222.771 73.4717 222.444 73.6748C222.396 73.7042 222.343 73.718 222.292 73.718ZM26.4724 73.0474C26.3751 73.0474 26.2802 72.9979 26.2261 72.9087C26.1439 72.7729 26.187 72.5956 26.3228 72.5133C26.6536 72.3124 26.9919 72.1167 27.329 71.9319C27.4683 71.8554 27.6432 71.9066 27.7197 72.0459C27.7962 72.1852 27.745 72.3602 27.6058 72.4367C27.2761 72.6175 26.9453 72.8091 26.6214 73.0054C26.5748 73.0336 26.523 73.0474 26.4724 73.0474ZM58.0236 72.9928C57.9897 72.9928 57.9558 72.987 57.9224 72.9743C57.5617 72.8379 57.2003 72.7044 56.8488 72.5766C56.6992 72.5225 56.6221 72.3573 56.6768 72.2076C56.7309 72.058 56.896 71.9808 57.0456 72.0355C57.3994 72.1639 57.763 72.2986 58.1255 72.4356C58.2739 72.4914 58.3493 72.6578 58.2929 72.8063C58.2492 72.922 58.1399 72.9928 58.0236 72.9928ZM224.707 72.1576C224.614 72.1576 224.523 72.1132 224.468 72.0304C224.38 71.8985 224.415 71.7195 224.546 71.6309C224.865 71.4168 225.183 71.1992 225.492 70.9839C225.623 70.893 225.802 70.9252 225.893 71.0559C225.984 71.1865 225.951 71.3655 225.821 71.4565C225.509 71.6735 225.188 71.8928 224.867 72.1086C224.818 72.1414 224.762 72.1576 224.707 72.1576ZM55.3207 72.0223C55.2902 72.0223 55.2586 72.0171 55.2281 72.0067C54.8633 71.883 54.4986 71.7621 54.143 71.6476C53.9917 71.5986 53.9089 71.4369 53.9572 71.2855C54.0061 71.1341 54.1678 71.0507 54.3191 71.0996C54.6775 71.2153 55.0457 71.3368 55.4128 71.4617C55.5629 71.5129 55.6435 71.6764 55.5929 71.8266C55.5526 71.9469 55.441 72.0223 55.3207 72.0223ZM203.857 71.731C203.82 71.731 203.782 71.7236 203.745 71.708C203.599 71.6459 203.531 71.4772 203.593 71.331C203.742 70.9793 203.895 70.6224 204.048 70.2713C204.112 70.1257 204.281 70.0589 204.427 70.1228C204.573 70.1861 204.639 70.3559 204.575 70.5016C204.423 70.8509 204.27 71.2055 204.122 71.5561C204.076 71.6654 203.969 71.731 203.857 71.731ZM29.0056 71.6942C28.8968 71.6942 28.7933 71.6326 28.7444 71.5273C28.6776 71.3834 28.7403 71.2118 28.8842 71.1451C29.2345 70.9822 29.593 70.8262 29.9485 70.68C30.0958 70.6196 30.2638 70.6904 30.3236 70.8371C30.3841 70.9845 30.3133 71.1526 30.1666 71.2124C29.8185 71.3552 29.4687 71.5077 29.1264 71.6666C29.0873 71.6856 29.0464 71.6942 29.0056 71.6942ZM52.585 71.1537C52.558 71.1537 52.5309 71.1497 52.5039 71.1422C52.1357 71.034 51.7663 70.9292 51.4056 70.8308C51.2525 70.7888 51.1622 70.6305 51.2036 70.4774C51.2456 70.3243 51.4039 70.2339 51.5569 70.2753C51.9211 70.3749 52.2945 70.4808 52.6661 70.5896C52.8186 70.6345 52.9061 70.7945 52.8612 70.9471C52.8244 71.0726 52.7093 71.1537 52.585 71.1537ZM31.6757 70.6362C31.5549 70.6362 31.4427 70.5597 31.403 70.4394C31.3529 70.2886 31.4346 70.1257 31.5854 70.0756C31.9513 69.9542 32.3247 69.8385 32.6957 69.7325C32.8488 69.6888 33.0076 69.7774 33.0513 69.9306C33.095 70.0837 33.0064 70.2425 32.8534 70.2863C32.4904 70.3899 32.1244 70.5027 31.7666 70.6219C31.7361 70.6316 31.7056 70.6362 31.6757 70.6362ZM227.061 70.5044C226.972 70.5044 226.885 70.4636 226.828 70.387C226.734 70.2586 226.762 70.0785 226.89 69.9847C227.199 69.7584 227.508 69.5282 227.809 69.2997C227.935 69.2036 228.116 69.2283 228.212 69.355C228.308 69.4816 228.283 69.6623 228.157 69.7585C227.853 69.9893 227.542 70.2218 227.231 70.4498C227.179 70.4866 227.119 70.5044 227.061 70.5044ZM49.8131 70.4123C49.7906 70.4123 49.7682 70.41 49.7458 70.4043C49.3741 70.3151 48.9995 70.2299 48.6336 70.151C48.4783 70.1176 48.3793 69.9645 48.4133 69.8091C48.4466 69.6537 48.5997 69.5547 48.755 69.5886C49.1255 69.6687 49.5035 69.7544 49.8798 69.8448C50.0346 69.8816 50.1295 70.037 50.0927 70.1919C50.0605 70.3237 49.9431 70.4123 49.8131 70.4123ZM34.4465 69.8776C34.3142 69.8776 34.1951 69.7855 34.1657 69.6508C34.1318 69.4954 34.2307 69.3423 34.3861 69.3083C34.7618 69.2266 35.1455 69.1518 35.5264 69.0856C35.6823 69.0579 35.8319 69.1633 35.8589 69.3198C35.886 69.4764 35.7813 69.6255 35.6248 69.6525C35.252 69.717 34.8763 69.7907 34.508 69.8707C34.4873 69.8753 34.4666 69.8776 34.4465 69.8776ZM47.0043 69.8258C46.9876 69.8258 46.9709 69.8241 46.9542 69.8212C46.578 69.755 46.1994 69.6928 45.83 69.6382C45.673 69.6146 45.5642 69.4683 45.5878 69.3112C45.6114 69.1541 45.7581 69.0453 45.9146 69.0689C46.2892 69.1247 46.6729 69.1869 47.0543 69.2542C47.2108 69.2819 47.3155 69.4309 47.2879 69.5875C47.2626 69.7279 47.1412 69.8258 47.0043 69.8258ZM44.1627 69.4252C44.1529 69.4252 44.1426 69.4246 44.1328 69.4235C43.7537 69.3843 43.3722 69.3503 42.9988 69.3233C42.8406 69.3118 42.7209 69.1742 42.7324 69.0154C42.7439 68.8571 42.882 68.7379 43.0402 68.7488C43.4194 68.7765 43.8072 68.8104 44.1921 68.8507C44.3503 68.8674 44.4648 69.0084 44.4487 69.1667C44.4331 69.3152 44.3083 69.4252 44.1627 69.4252ZM37.2823 69.4154C37.1373 69.4154 37.0131 69.3066 36.9969 69.1593C36.9797 69.0015 37.093 68.8588 37.2512 68.8415C37.6321 68.7995 38.0216 68.7638 38.4077 68.7368C38.5659 68.7258 38.704 68.845 38.7149 69.0033C38.7258 69.1616 38.6067 69.2997 38.4485 69.3106C38.0699 69.3377 37.6885 69.3722 37.3151 69.4137C37.3036 69.4148 37.2927 69.4154 37.2823 69.4154ZM41.2987 69.2427C41.2964 69.2427 41.2947 69.2427 41.2924 69.2427C40.9121 69.2347 40.5312 69.2329 40.1544 69.2381C39.995 69.2427 39.865 69.1132 39.8627 68.9543C39.8604 68.7955 39.9875 68.6648 40.1463 68.6625C40.5301 68.6573 40.9178 68.6585 41.305 68.6671C41.4638 68.6706 41.5898 68.8024 41.5864 68.9612C41.5829 69.1184 41.4546 69.2427 41.2987 69.2427ZM205.014 69.0977C204.974 69.0977 204.933 69.0896 204.895 69.0718C204.75 69.0061 204.686 68.8352 204.752 68.6907C204.909 68.3448 205.072 67.9919 205.235 67.6425C205.302 67.4986 205.473 67.4359 205.617 67.5032C205.761 67.5706 205.823 67.7415 205.757 67.886C205.594 68.2337 205.433 68.5848 205.276 68.929C205.228 69.0349 205.123 69.0977 205.014 69.0977ZM229.342 68.7546C229.258 68.7546 229.174 68.7178 229.117 68.647C229.018 68.5232 229.038 68.3419 229.162 68.2423C229.46 68.0023 229.758 67.7582 230.048 67.5171C230.17 67.4152 230.351 67.4319 230.453 67.5539C230.555 67.6759 230.538 67.8572 230.416 67.9591C230.124 68.2026 229.823 68.449 229.522 68.6913C229.469 68.7339 229.405 68.7546 229.342 68.7546ZM231.541 66.9017C231.461 66.9017 231.382 66.8689 231.325 66.8045C231.22 66.6853 231.231 66.5034 231.35 66.3981C231.636 66.1448 231.922 65.887 232.199 65.6314C232.316 65.5237 232.498 65.5312 232.606 65.6481C232.713 65.7649 232.706 65.9468 232.589 66.0545C232.309 66.3129 232.02 66.5731 231.731 66.8286C231.676 66.8781 231.609 66.9017 231.541 66.9017ZM206.237 66.4925C206.195 66.4925 206.152 66.4833 206.112 66.4637C205.969 66.3946 205.909 66.2225 205.978 66.0792C206.146 65.7321 206.317 65.3833 206.486 65.0425C206.557 64.9004 206.729 64.8417 206.872 64.9125C207.014 64.9833 207.072 65.1559 207.002 65.2981C206.833 65.6377 206.663 65.9848 206.496 66.3302C206.446 66.4326 206.343 66.4925 206.237 66.4925ZM233.645 64.9435C233.57 64.9435 233.496 64.9148 233.44 64.8572C233.329 64.7438 233.331 64.5613 233.444 64.4503C233.716 64.1838 233.988 63.9115 234.252 63.6415C234.363 63.5281 234.545 63.5258 234.658 63.6369C234.772 63.748 234.774 63.9305 234.663 64.0439C234.396 64.3173 234.121 64.5924 233.846 64.8618C233.79 64.9165 233.718 64.9435 233.645 64.9435ZM207.521 63.9155C207.477 63.9155 207.432 63.9052 207.39 63.8839C207.248 63.8113 207.193 63.6381 207.265 63.4965C207.438 63.158 207.617 62.8132 207.796 62.4708C207.87 62.3297 208.044 62.2756 208.184 62.3493C208.325 62.423 208.38 62.5968 208.306 62.7378C208.128 63.0786 207.95 63.4222 207.777 63.759C207.727 63.8585 207.626 63.9155 207.521 63.9155ZM235.642 62.8777C235.573 62.8777 235.503 62.853 235.448 62.8023C235.33 62.6952 235.322 62.5128 235.43 62.3959C235.687 62.115 235.943 61.8284 236.192 61.544C236.296 61.4243 236.478 61.4122 236.598 61.517C236.718 61.6217 236.73 61.8036 236.625 61.9228C236.374 62.21 236.115 62.5001 235.855 62.7845C235.798 62.8461 235.72 62.8777 235.642 62.8777ZM208.862 61.3662C208.816 61.3662 208.769 61.3552 208.725 61.3316C208.585 61.2562 208.533 61.0818 208.609 60.942C208.79 60.6058 208.976 60.2639 209.161 59.9272C209.237 59.7879 209.412 59.7372 209.551 59.8132C209.691 59.8898 209.742 60.0647 209.665 60.204C209.481 60.5402 209.296 60.8804 209.115 61.2154C209.063 61.3109 208.964 61.3662 208.862 61.3662ZM237.52 60.7031C237.456 60.7031 237.391 60.6818 237.338 60.6386C237.215 60.5385 237.197 60.3572 237.297 60.234C237.537 59.9387 237.776 59.6376 238.007 59.3395C238.105 59.214 238.285 59.191 238.411 59.2883C238.536 59.3855 238.559 59.5663 238.462 59.6923C238.228 59.9945 237.986 60.299 237.743 60.5978C237.686 60.6668 237.603 60.7031 237.52 60.7031ZM210.253 58.8422C210.205 58.8422 210.157 58.8301 210.112 58.8048C209.973 58.7265 209.924 58.5509 210.003 58.4128C210.191 58.0778 210.383 57.7405 210.572 57.4112C210.65 57.2731 210.826 57.2253 210.964 57.3047C211.102 57.3836 211.15 57.5597 211.07 57.6973C210.882 58.0254 210.692 58.3615 210.503 58.6954C210.451 58.7892 210.353 58.8422 210.253 58.8422ZM239.264 58.4191C239.206 58.4191 239.148 58.4018 239.098 58.3661C238.968 58.274 238.938 58.0945 239.03 57.965C239.254 57.6495 239.471 57.3329 239.675 57.0244C239.762 56.892 239.941 56.8558 240.073 56.9433C240.206 57.0308 240.242 57.2098 240.155 57.3421C239.947 57.6558 239.727 57.9776 239.499 58.2982C239.443 58.3771 239.354 58.4191 239.264 58.4191ZM211.685 56.3492C211.636 56.3492 211.586 56.3366 211.54 56.3095C211.403 56.2289 211.357 56.0528 211.437 55.9158C211.631 55.5854 211.826 55.2544 212.023 54.9235C212.104 54.7871 212.28 54.7422 212.417 54.8233C212.553 54.9045 212.598 55.0812 212.517 55.2176C212.321 55.5474 212.126 55.8772 211.933 56.2065C211.88 56.2986 211.784 56.3492 211.685 56.3492ZM240.825 56.005C240.776 56.005 240.726 55.9924 240.68 55.9659C240.543 55.8859 240.496 55.7097 240.576 55.5727C240.77 55.2395 240.954 54.9045 241.125 54.5764C241.198 54.4354 241.371 54.3807 241.513 54.4544C241.654 54.528 241.709 54.7019 241.635 54.8423C241.46 55.1779 241.271 55.5209 241.074 55.8617C241.02 55.9538 240.924 56.005 240.825 56.005ZM213.157 53.8799C213.106 53.8799 213.055 53.8667 213.008 53.8379C212.872 53.7556 212.829 53.5783 212.911 53.4424C213.11 53.1149 213.31 52.7874 213.511 52.4593C213.594 52.3241 213.771 52.2815 213.907 52.3643C214.042 52.4472 214.085 52.6245 214.002 52.7604C213.801 53.0873 213.602 53.4142 213.404 53.7406C213.349 53.8304 213.254 53.8799 213.157 53.8799ZM242.118 53.4384C242.08 53.4384 242.042 53.4309 242.005 53.4154C241.859 53.3532 241.791 53.184 241.853 53.0378C242.003 52.6861 242.141 52.331 242.266 51.9827C242.319 51.8331 242.484 51.7548 242.633 51.8083C242.783 51.8618 242.861 52.0265 242.807 52.1761C242.68 52.5353 242.536 52.9014 242.383 53.2634C242.336 53.3728 242.23 53.4384 242.118 53.4384ZM214.664 51.4313C214.612 51.4313 214.559 51.4169 214.512 51.3876C214.377 51.3035 214.337 51.1257 214.421 50.991C214.506 50.8545 214.591 50.7176 214.677 50.5811C214.792 50.3981 214.916 50.207 215.045 50.0142C215.134 49.8824 215.313 49.8472 215.445 49.9359C215.576 50.0245 215.611 50.2035 215.523 50.3354C215.397 50.5236 215.276 50.7089 215.164 50.8874C215.079 51.0238 214.994 51.1602 214.908 51.2966C214.853 51.3829 214.759 51.4313 214.664 51.4313ZM243.035 50.7164C243.012 50.7164 242.989 50.7135 242.966 50.7078C242.811 50.6698 242.717 50.5138 242.755 50.3595C242.846 49.9917 242.923 49.6199 242.985 49.2549C243.012 49.0984 243.16 48.9925 243.317 49.0195C243.474 49.046 243.579 49.1945 243.553 49.3516C243.488 49.7304 243.408 50.116 243.314 50.4977C243.281 50.6283 243.164 50.7164 243.035 50.7164ZM216.292 49.061C216.231 49.061 216.17 49.042 216.117 49.0017C215.991 48.905 215.966 48.7248 216.063 48.5982C216.289 48.3018 216.531 47.9955 216.781 47.6876C216.881 47.5644 217.062 47.5454 217.186 47.6456C217.309 47.7457 217.328 47.927 217.227 48.0502C216.981 48.3536 216.743 48.6552 216.52 48.947C216.464 49.0218 216.378 49.061 216.292 49.061ZM243.452 47.8764C243.448 47.8764 243.444 47.8764 243.441 47.8764C243.282 47.8701 243.158 47.7359 243.165 47.5771C243.171 47.4119 243.175 47.2444 243.175 47.078C243.175 46.8708 243.169 46.6607 243.159 46.4529C243.151 46.2941 243.273 46.1594 243.432 46.1513C243.591 46.1432 243.726 46.2659 243.734 46.4247C243.745 46.6417 243.75 46.861 243.75 47.078C243.75 47.2519 243.746 47.428 243.74 47.6001C243.733 47.7549 243.606 47.8764 243.452 47.8764ZM218.119 46.8391C218.051 46.8391 217.984 46.8155 217.929 46.7678C217.809 46.663 217.798 46.4811 217.902 46.3614C218.152 46.0771 218.412 45.7869 218.675 45.5003C218.783 45.3834 218.964 45.3754 219.081 45.483C219.198 45.5907 219.206 45.7726 219.099 45.8894C218.839 46.1732 218.581 46.4598 218.335 46.7413C218.278 46.8063 218.199 46.8391 218.119 46.8391ZM243.245 45.0139C243.109 45.0139 242.988 44.9172 242.962 44.7791C242.893 44.4095 242.806 44.0417 242.704 43.686C242.661 43.5335 242.749 43.374 242.902 43.3297C243.055 43.286 243.214 43.374 243.258 43.5271C243.365 43.9001 243.456 44.2858 243.528 44.6726C243.558 44.8286 243.455 44.9794 243.299 45.0087C243.28 45.0122 243.262 45.0139 243.245 45.0139ZM220.074 44.7296C220.001 44.7296 219.929 44.7025 219.873 44.6478C219.759 44.5367 219.757 44.3543 219.868 44.2409C220.138 43.9652 220.412 43.6895 220.685 43.4212C220.798 43.3096 220.98 43.3113 221.092 43.4247C221.203 43.5381 221.201 43.72 221.088 43.8316C220.818 44.097 220.547 44.3698 220.28 44.6427C220.223 44.7002 220.149 44.7296 220.074 44.7296ZM222.134 42.723C222.056 42.723 221.979 42.6919 221.923 42.6303C221.815 42.5135 221.822 42.3316 221.939 42.224C222.224 41.9598 222.513 41.699 222.797 41.4481C222.916 41.3427 223.098 41.3542 223.204 41.4734C223.309 41.5925 223.297 41.7744 223.178 41.8798C222.897 42.1279 222.612 42.3857 222.33 42.647C222.274 42.6977 222.204 42.723 222.134 42.723ZM242.384 42.2775C242.275 42.2775 242.171 42.2153 242.122 42.1094C241.965 41.767 241.79 41.4342 241.602 41.12C241.52 40.9836 241.564 40.8068 241.7 40.7251C241.836 40.6434 242.013 40.6877 242.095 40.8235C242.294 41.1557 242.479 41.5074 242.645 41.8688C242.711 42.0133 242.648 42.1843 242.503 42.2505C242.465 42.2689 242.424 42.2775 242.384 42.2775ZM224.303 40.8339C224.22 40.8339 224.137 40.7976 224.08 40.728C223.98 40.6048 223.998 40.4235 224.121 40.3233C224.43 40.0712 224.736 39.8295 225.032 39.6044C225.159 39.5083 225.339 39.5325 225.435 39.6591C225.531 39.7857 225.507 39.9659 225.381 40.0626C225.091 40.2836 224.789 40.5219 224.485 40.77C224.431 40.8126 224.367 40.8339 224.303 40.8339ZM240.835 39.8669C240.755 39.8669 240.676 39.8341 240.619 39.769C240.373 39.4887 240.108 39.2245 239.833 38.9833C239.713 38.8786 239.701 38.6967 239.806 38.577C239.911 38.4572 240.092 38.4452 240.212 38.5499C240.506 38.8072 240.789 39.0898 241.051 39.3886C241.156 39.5077 241.144 39.6896 241.025 39.7949C240.97 39.8433 240.903 39.8669 240.835 39.8669ZM226.611 39.1192C226.517 39.1192 226.425 39.0731 226.37 38.9879C226.283 38.8544 226.321 38.6765 226.454 38.5896C226.779 38.3784 227.119 38.1769 227.463 37.991C227.603 37.9156 227.777 37.968 227.853 38.1078C227.928 38.2477 227.876 38.4221 227.736 38.4975C227.405 38.676 227.079 38.8694 226.767 39.072C226.719 39.1042 226.665 39.1192 226.611 39.1192ZM238.618 38.0589C238.571 38.0589 238.522 38.0468 238.477 38.0215C238.158 37.8408 237.821 37.679 237.476 37.5403C237.329 37.481 237.257 37.3135 237.316 37.1662C237.375 37.0188 237.543 36.9469 237.69 37.0061C238.059 37.1541 238.418 37.3273 238.76 37.5202C238.898 37.5984 238.947 37.774 238.869 37.9121C238.816 38.006 238.719 38.0589 238.618 38.0589ZM229.165 37.8085C229.05 37.8085 228.941 37.7395 228.896 37.6255C228.838 37.4776 228.911 37.3106 229.059 37.2525C229.423 37.1098 229.796 36.9808 230.168 36.8692C230.32 36.8237 230.48 36.91 230.526 37.062C230.572 37.2145 230.486 37.3745 230.334 37.4206C229.977 37.5276 229.619 37.6514 229.269 37.7884C229.235 37.8016 229.199 37.8085 229.165 37.8085ZM235.932 37.0741C235.913 37.0741 235.894 37.0723 235.875 37.0683C235.516 36.9975 235.145 36.9457 234.769 36.9146C234.611 36.9014 234.493 36.7627 234.507 36.6044C234.52 36.4461 234.659 36.3281 234.817 36.3413C235.214 36.3741 235.607 36.4288 235.987 36.5036C236.143 36.5347 236.245 36.6861 236.214 36.8421C236.187 36.9791 236.066 37.0741 235.932 37.0741ZM231.929 37.043C231.79 37.043 231.668 36.9428 231.645 36.8018C231.62 36.6452 231.726 36.4967 231.882 36.4714C232.273 36.4075 232.665 36.3609 233.05 36.3338C233.207 36.3218 233.346 36.4421 233.358 36.6009C233.369 36.7592 233.249 36.8968 233.091 36.9083C232.723 36.9342 232.348 36.9785 231.976 37.0395C231.96 37.0413 231.945 37.043 231.929 37.043ZM257.748 161.432C257.747 161.432 257.745 161.432 257.744 161.432C257.552 161.429 257.359 161.426 257.167 161.423C257.008 161.42 256.882 161.289 256.885 161.13C256.888 160.973 257.016 160.847 257.172 160.847C257.174 160.847 257.176 160.847 257.178 160.847C257.369 160.851 257.56 160.854 257.751 160.856C257.91 160.858 258.037 160.988 258.035 161.147C258.034 161.305 257.905 161.432 257.748 161.432Z" fill="#DC3939"/>
<path d="M196.82 69.6874L188.287 67.4L190.206 60.2349C190.621 58.6894 189.703 57.1001 188.159 56.6863L116.899 37.5826C115.358 37.1694 113.773 38.0846 113.36 39.6266L86.522 139.834C86.109 141.376 87.0237 142.961 88.5651 143.374L159.826 162.478C161.37 162.892 162.957 161.975 163.37 160.431L177.299 108.425L185.831 110.712C187.876 111.26 189.977 110.046 190.524 108.001L199.528 74.382C200.077 72.3375 198.864 70.2354 196.82 69.6874Z" fill="#DF7878"/>
<path d="M150.915 148.332L81.3037 151.837C79.717 151.917 78.3655 150.695 78.2861 149.108L73.3572 51.1155C73.2773 49.528 74.4987 48.1764 76.0855 48.0964L88.3297 47.48L145.697 44.5916C147.284 44.5116 148.635 45.7342 148.715 47.3217L153.624 144.913L153.644 145.313C153.724 146.901 152.502 148.253 150.915 148.332Z" fill="#F2F2F2"/>
<path opacity="0.5" d="M153.624 144.913L115.77 142.394L85.0384 140.349C83.4528 140.243 82.2532 138.872 82.359 137.286L88.3304 47.48L145.698 44.5916C147.285 44.5116 148.636 45.7342 148.716 47.3217L153.624 144.913Z" fill="#F2F2F2"/>
<path d="M166.871 47.1239L166.646 50.4957L160.361 145.024C160.256 146.61 158.886 147.81 157.3 147.705L118.486 145.121L87.7542 143.076C86.1686 142.97 84.969 141.599 85.0749 140.013L91.5842 42.1138C91.6895 40.5275 93.0599 39.3274 94.645 39.4333L111.08 40.5269L135.528 42.1536L164.191 44.0611C165.777 44.167 166.976 45.5381 166.871 47.1239Z" fill="#F7F7F7"/>
<path opacity="0.5" d="M166.646 50.4957L160.362 145.024C160.256 146.61 158.886 147.81 157.301 147.704L118.486 145.121L87.9955 136.948C86.5843 136.569 85.7466 135.118 86.1251 133.706L111.08 40.5269L135.528 42.1535L166.646 50.4957Z" fill="#F7F7F7"/>
<path d="M157.745 158.84L89.9744 140.673C88.5631 140.294 87.7254 138.843 88.1034 137.431L113.546 42.4347C113.957 40.8996 115.534 39.9884 117.069 40.3994L184.617 58.5072C186.029 58.8854 186.866 60.3371 186.488 61.749L160.986 156.969C160.607 158.381 159.157 159.219 157.745 158.84Z" fill="white"/>
<path d="M117 144.58L190.311 124.006L135.783 71L117 144.58Z" fill="#FF6D6D"/>
<path d="M121.297 140.058L184.28 122.383L137.434 76.8442L121.297 140.058Z" fill="#FB0B0B"/>
<path d="M148.777 115.697C149.684 115.455 150.307 114.98 150.648 114.273C150.99 113.566 151.047 112.802 150.837 112.021L147.643 98.4782C147.367 97.4505 146.899 96.6955 146.228 96.17C145.558 95.6445 144.603 95.5451 143.408 95.8661C142.213 96.1871 141.447 96.7864 141.141 97.6164C140.834 98.4464 140.848 99.3207 141.141 100.258L141.149 100.123L145.192 113.53C145.443 114.3 145.876 114.932 146.485 115.386C147.095 115.841 147.871 115.939 148.777 115.697ZM152.053 117.86C151.176 117.39 150.222 117.292 149.233 117.556C148.203 117.832 147.426 118.391 146.943 119.225C146.46 120.058 146.362 121.009 146.658 122.118C146.967 123.268 147.529 124.043 148.353 124.483C149.178 124.923 150.12 124.98 151.151 124.705C152.14 124.44 152.928 123.922 153.463 123.118C153.998 122.315 154.137 121.353 153.828 120.204C153.532 119.094 152.93 118.331 152.053 117.86Z" fill="#FF6D6D"/>
<path d="M150.15 115.298C150.468 115.295 150.783 115.251 151.089 115.166C152.025 114.916 152.679 114.416 153.032 113.681C153.386 112.946 153.449 112.168 153.231 111.352L150.036 97.8078C149.755 96.7608 149.28 95.9859 148.582 95.44C147.885 94.894 146.902 94.7844 145.662 95.1156C144.448 95.4394 143.638 96.0689 143.317 96.9363C143.006 97.7777 143.007 98.6656 143.317 99.6507L143.503 100.241L143.509 100.13L147.368 112.923C147.63 113.725 148.078 114.369 148.701 114.834C149.12 115.144 149.629 115.308 150.15 115.298ZM147.583 112.856L143.355 98.8378C143.254 98.2258 143.313 97.5979 143.526 97.0153C143.824 96.2092 144.561 95.6439 145.716 95.3354C146.883 95.0241 147.799 95.1196 148.437 95.6195C149.094 96.1342 149.544 96.8693 149.811 97.864L153.009 111.411C153.214 112.174 153.152 112.905 152.827 113.585C152.501 114.264 151.898 114.716 151.03 114.948C150.149 115.183 149.411 115.084 148.835 114.654C148.252 114.216 147.831 113.61 147.586 112.855L147.583 112.856ZM154.39 117.119C153.491 116.637 152.514 116.532 151.484 116.806C150.415 117.09 149.621 117.67 149.125 118.527C148.622 119.396 148.526 120.37 148.831 121.506C149.148 122.685 149.721 123.482 150.582 123.942C151.091 124.211 151.659 124.35 152.235 124.344C152.65 124.341 153.062 124.284 153.461 124.174C154.503 123.896 155.303 123.346 155.839 122.541C156.401 121.698 156.529 120.686 156.219 119.534C155.926 118.425 155.309 117.612 154.39 117.119ZM155.654 122.414C155.149 123.173 154.393 123.69 153.407 123.953C152.381 124.227 151.47 124.156 150.693 123.742C149.889 123.313 149.353 122.563 149.054 121.448C148.765 120.373 148.854 119.455 149.325 118.641C149.79 117.838 150.537 117.295 151.547 117.026C151.884 116.934 152.231 116.886 152.58 116.885C153.176 116.885 153.761 117.035 154.284 117.319C155.157 117.788 155.721 118.532 156.006 119.592C156.3 120.693 156.185 121.617 155.654 122.414Z" fill="white"/>
<path opacity="0.5" d="M205.892 49.3534C205.165 49.0055 204.453 48.9393 203.767 49.1805C203.082 49.4217 202.558 49.9114 202.181 50.6889C201.789 51.4943 201.727 52.2107 201.979 52.8629C202.231 53.5151 202.74 54.011 203.462 54.3589C204.155 54.6932 204.859 54.7843 205.56 54.5897C206.261 54.3951 206.813 53.9158 207.204 53.1093C207.581 52.3318 207.619 51.603 207.347 50.9052C207.085 50.2177 206.562 49.6603 205.892 49.3534ZM216.361 36.0038C215.67 35.3778 214.89 34.8579 214.046 34.4612C212.718 33.8207 211.523 33.4929 210.461 33.4777C209.479 33.4504 208.501 33.6187 207.585 33.9726C207.214 34.1189 206.86 34.3061 206.531 34.5306C206.115 34.7922 205.762 35.2256 205.471 35.8309C205.197 36.3605 205.129 36.9725 205.279 37.5494C205.43 38.1198 205.822 38.5577 206.487 38.8776C206.977 39.1144 207.393 39.2093 207.733 39.1623C208.139 39.0939 208.53 38.9581 208.89 38.7606C209.357 38.5526 209.854 38.4208 210.363 38.3704C210.836 38.3183 211.315 38.4012 211.743 38.6095C212.406 38.9294 212.828 39.3104 212.976 39.7369C213.049 39.9494 213.078 40.1745 213.062 40.3986C213.045 40.6226 212.983 40.8409 212.879 41.0403C212.774 41.2704 212.612 41.4701 212.408 41.6203C212.204 41.7705 211.965 41.8663 211.714 41.8985C211.171 41.9917 210.351 41.9161 209.244 41.7018C208.681 41.609 208.104 41.661 207.567 41.853C207.01 42.0455 206.571 42.4379 206.278 43.0425L206.42 42.8975L205.441 44.9121C205.149 45.5157 205.084 46.0892 205.278 46.6441C205.473 47.199 205.893 47.6514 206.558 47.9713C207.222 48.2912 207.825 48.3699 208.382 48.1784C208.94 47.9869 209.35 47.58 209.643 46.9754L210.076 46.083C211.886 46.317 213.42 46.2404 214.663 45.8097C215.906 45.379 216.882 44.4639 217.571 43.0549C218.033 42.1045 218.264 41.1914 218.282 40.3425C218.306 39.5333 218.149 38.7289 217.821 37.9883C217.473 37.2355 216.977 36.5604 216.361 36.0038ZM114.478 27.3397C115.079 27.113 115.489 26.7796 115.699 26.3138C115.908 25.8479 115.897 25.3458 115.689 24.8002L115.378 23.9948C116.608 22.9937 117.475 21.9812 117.944 20.9418C118.412 19.9024 118.418 18.7398 117.933 17.4665C117.656 16.6917 117.214 15.9855 116.638 15.3959C116.141 14.8976 115.538 14.5166 114.873 14.281C114.189 14.0505 113.464 13.9603 112.744 14.0159C111.935 14.0769 111.139 14.258 110.383 14.5532C109.184 15.0067 108.262 15.5637 107.618 16.2241C107.014 16.8265 106.536 17.5431 106.213 18.3319C106.084 18.653 105.992 18.9874 105.937 19.3289C105.857 19.743 105.921 20.2261 106.129 20.7782C106.301 21.2674 106.648 21.6762 107.103 21.9263C107.555 22.1717 108.067 22.1862 108.667 21.9584C109.11 21.7907 109.419 21.5837 109.594 21.3373C109.794 21.0413 109.941 20.7141 110.032 20.3693C110.178 19.9512 110.392 19.5594 110.663 19.2088C110.913 18.8802 111.252 18.6289 111.639 18.4841C112.239 18.2574 112.732 18.2191 113.093 18.3806C113.271 18.4618 113.431 18.578 113.563 18.7223C113.695 18.8666 113.796 19.0359 113.86 19.2202C113.943 19.423 113.973 19.6436 113.946 19.8609C113.92 20.0783 113.838 20.2854 113.709 20.4625C113.443 20.8611 112.906 21.3321 112.11 21.9015C111.715 22.2004 111.402 22.5948 111.203 23.0475C111.097 23.287 111.041 23.5454 111.038 23.8073C111.035 24.0691 111.085 24.3287 111.186 24.5704L111.179 24.3944L111.873 26.2144C112.081 26.76 112.406 27.1461 112.873 27.3532C113.34 27.5602 113.879 27.5675 114.478 27.3397ZM116.808 28.5996C116.215 28.3531 115.549 28.349 114.954 28.5882C114.302 28.8346 113.833 29.2497 113.575 29.8233C113.316 30.3968 113.315 31.0221 113.583 31.724C113.86 32.4487 114.277 32.9187 114.842 33.1506C115.407 33.3825 116.025 33.3576 116.677 33.1102C117.3 32.8731 117.781 32.4891 118.076 31.9269C118.371 31.3648 118.396 30.7343 118.119 30.0065C117.852 29.3046 117.41 28.8481 116.808 28.5996ZM222.653 125.009C221.605 124.685 220.621 124.747 219.745 125.208C218.87 125.668 218.258 126.442 217.906 127.57C217.543 128.74 217.604 129.721 218.079 130.556C218.555 131.39 219.344 131.954 220.391 132.278C221.397 132.589 222.364 132.57 223.276 132.164C224.188 131.757 224.834 130.997 225.198 129.827C225.55 128.699 225.445 127.705 224.942 126.816C224.446 125.938 223.624 125.288 222.653 125.009ZM229.522 102.95C228.306 102.574 227.309 102.677 226.585 103.231C225.862 103.785 225.391 104.557 225.132 105.532L225.213 105.419L221.352 119.291C221.143 120.057 221.179 120.87 221.455 121.614C221.735 122.339 222.356 122.857 223.278 123.14C224.2 123.424 225.003 123.354 225.688 122.924C226.368 122.497 226.868 121.838 227.093 121.069L231.766 107.537C232.091 106.492 232.101 105.579 231.806 104.755C231.511 103.931 230.737 103.325 229.522 102.95ZM45.9077 62.3883C46.8077 62.0432 47.3931 61.4911 47.6637 60.7319C47.9329 59.9781 47.9163 59.1522 47.617 58.4098L42.8578 44.8997C42.4631 43.88 41.9024 43.1584 41.1578 42.6936C40.4132 42.2288 39.4277 42.2329 38.2407 42.6936C37.0538 43.1543 36.3352 43.8489 36.1129 44.731C35.8907 45.613 36.0008 46.5095 36.4048 47.432L36.3985 47.2932L42.0062 60.5652C42.3184 61.2963 42.8522 61.9117 43.5328 62.3252C44.2005 62.7165 45.0063 62.7341 45.9077 62.3883ZM49.4946 64.2445C48.5595 63.863 47.5115 63.863 46.5765 64.2445C45.5536 64.6379 44.8204 65.2953 44.4175 66.2001C44.0146 67.1049 44.0187 68.0884 44.4456 69.191C44.8869 70.3298 45.5463 71.0648 46.4384 71.4251C47.3304 71.7853 48.3003 71.7356 49.3242 71.3474C50.3066 70.9695 51.0564 70.3525 51.5154 69.4736C51.9744 68.5947 52.0118 67.5946 51.5694 66.4517C51.1478 65.346 50.4427 64.6307 49.4946 64.2445Z" fill="#DF7878"/>
</svg>
