<svg width="214" height="214" viewBox="0 0 214 214" fill="none" xmlns="http://www.w3.org/2000/svg">
<g clip-path="url(#clip0_385_24601)">
<path fill-rule="evenodd" clip-rule="evenodd" d="M122.062 118.111L127.579 119.052C129.54 119.337 131.333 120.316 132.633 121.812C133.933 123.308 134.654 125.22 134.663 127.202V139.364C134.67 141.365 133.944 143.3 132.621 144.802C131.298 146.304 129.471 147.269 127.485 147.514L122.062 148.454C121.638 149.602 121.167 150.731 120.651 151.84L123.786 156.165C125.042 157.754 125.672 159.748 125.556 161.77C125.441 163.792 124.588 165.701 123.159 167.137L114.539 175.725C113.098 177.159 111.177 178.008 109.147 178.108C107.185 178.214 105.25 177.614 103.693 176.415L99.2418 173.249C98.1332 173.756 97.0038 174.216 95.8564 174.628L94.9474 180.145C94.6621 182.106 93.6827 183.9 92.1871 185.2C90.6915 186.5 88.779 187.22 86.7974 187.229H74.6037C72.5995 187.229 70.6646 186.496 69.1634 185.168C67.6623 183.84 66.6985 182.009 66.4537 180.02L65.5133 174.597C64.3758 174.186 63.2567 173.726 62.1593 173.218L57.7709 176.352C56.6188 177.251 55.2508 177.831 53.8039 178.035C52.3571 178.238 50.8821 178.058 49.5268 177.512C48.5198 177.099 47.6039 176.492 46.8311 175.725L38.2422 167.074C36.8303 165.657 35.9843 163.772 35.8631 161.775C35.7419 159.778 36.3538 157.806 37.5839 156.228L40.7499 151.777C40.2331 150.679 39.7625 149.56 39.3393 148.423L33.8538 147.483C31.8927 147.197 30.0992 146.218 28.7991 144.722C27.4991 143.227 26.7789 141.314 26.7695 139.333V127.139C26.7689 125.14 27.4977 123.208 28.8192 121.708C30.1407 120.208 31.9643 119.241 33.9478 118.989L39.3393 118.08C39.7628 116.943 40.2334 115.824 40.7499 114.726L37.5213 110.181C36.3147 108.64 35.7127 106.711 35.8286 104.758C35.9546 102.746 36.8133 100.85 38.2422 99.429L46.8624 90.7775C48.3173 89.3505 50.2492 88.513 52.2853 88.4265C54.2618 88.3214 56.2098 88.9336 57.7709 90.1505L62.1593 93.2852C63.2676 92.7773 64.3971 92.3172 65.5447 91.9059L66.4851 86.4204C66.7565 84.4479 67.73 82.6395 69.227 81.3268C70.724 80.014 72.6441 79.285 74.6351 79.2734H86.7974C88.8016 79.2737 90.7365 80.0069 92.2377 81.3348C93.7388 82.6628 94.7026 84.4938 94.9474 86.483L95.8877 91.9059C97.0241 92.3198 98.143 92.7799 99.2418 93.2852L103.63 90.1505C105.192 88.8863 107.174 88.2592 109.178 88.3952C111.153 88.5205 113.097 89.3355 114.539 90.7775L123.19 99.3976C124.621 100.819 125.476 102.719 125.592 104.732C125.707 106.745 125.075 108.73 123.817 110.306L120.683 114.695C121.19 115.803 121.651 116.932 122.062 118.08V118.111ZM80.6849 156.73C77.6035 156.738 74.5508 156.137 71.7023 154.962C68.8539 153.786 66.2659 152.06 64.087 149.881C61.9081 147.702 60.1813 145.114 59.0059 142.265C57.8305 139.417 57.2297 136.364 57.238 133.283C57.2297 130.197 57.8313 127.141 59.0083 124.288C60.1853 121.436 61.9143 118.845 64.0961 116.663C66.2779 114.481 68.8695 112.752 71.7217 111.575C74.5739 110.398 77.6307 109.796 80.7162 109.805C83.8017 109.796 86.8585 110.398 89.7107 111.575C92.563 112.752 95.1545 114.481 97.3363 116.663C99.5181 118.845 101.247 121.436 102.424 124.288C103.601 127.141 104.203 130.197 104.194 133.283C104.203 136.37 103.6 139.427 102.421 142.28C101.241 145.132 99.5089 147.723 97.3234 149.903C95.1378 152.083 92.5424 153.808 89.6867 154.98C86.831 156.152 83.7715 156.746 80.6849 156.73Z" fill="#0399ED"/>
<path fill-rule="evenodd" clip-rule="evenodd" d="M80.7158 99.8379C89.5864 99.8379 98.0936 103.362 104.366 109.634C110.638 115.906 114.162 124.414 114.162 133.284C114.162 142.155 110.638 150.662 104.366 156.934C98.0936 163.207 89.5864 166.731 80.7158 166.731C71.8453 166.731 63.3381 163.207 57.0657 156.934C50.7933 150.662 47.2695 142.155 47.2695 133.284C47.2695 124.414 50.7933 115.906 57.0657 109.634C63.3381 103.362 71.8453 99.8379 80.7158 99.8379ZM80.7158 156.731C77.6292 156.748 74.5698 156.153 71.7141 154.981C68.8584 153.81 66.2629 152.084 64.0773 149.904C61.8918 147.725 60.1594 145.134 58.9801 142.281C57.8008 139.429 57.1979 136.371 57.2063 133.284C57.198 130.196 57.8006 127.137 58.9795 124.282C60.1585 121.428 61.8903 118.835 64.0755 116.653C66.2606 114.471 68.8558 112.742 71.7117 111.567C74.5676 110.392 77.6277 109.794 80.7158 109.806C83.8014 109.798 86.8581 110.399 89.7104 111.576C92.5626 112.753 95.1541 114.482 97.3359 116.664C99.5177 118.846 101.247 121.437 102.424 124.29C103.601 127.142 104.202 130.199 104.194 133.284C104.202 136.371 103.6 139.429 102.42 142.281C101.241 145.134 99.5086 147.725 97.323 149.904C95.1375 152.084 92.542 153.81 89.6863 154.981C86.8306 156.153 83.7712 156.748 80.6845 156.731H80.7158Z" fill="#1EAEFF"/>
<path fill-rule="evenodd" clip-rule="evenodd" d="M181.055 56.5479L184.816 57.1749C186.146 57.3689 187.363 58.0312 188.248 59.0426C189.133 60.0539 189.628 61.348 189.644 62.6918V70.9985C189.646 72.3608 189.151 73.6771 188.25 74.6992C187.349 75.7212 186.106 76.3784 184.754 76.5468L181.055 77.1737C180.772 77.9488 180.459 78.7122 180.114 79.462L182.246 82.4398C183.125 83.5128 183.562 84.8803 183.468 86.2641C183.377 87.6383 182.786 88.9315 181.807 89.9002L175.945 95.7933C174.948 96.7543 173.631 97.3126 172.247 97.3606C170.919 97.4346 169.608 97.0347 168.548 96.2321L165.507 94.0692C164.758 94.4147 163.994 94.7284 163.219 95.0096L162.592 98.7712C162.397 100.106 161.73 101.327 160.712 102.213C159.694 103.099 158.393 103.59 157.044 103.598H148.737C147.364 103.608 146.037 103.111 145.007 102.203C143.978 101.296 143.319 100.04 143.157 98.6771L142.53 95.041C141.754 94.7607 140.991 94.4469 140.242 94.1006L137.264 96.2321C136.478 96.8515 135.541 97.2506 134.549 97.3883C133.558 97.526 132.547 97.3974 131.622 97.0158C130.939 96.7217 130.321 96.2956 129.804 95.7619L123.942 89.9002C122.978 88.9351 122.398 87.6517 122.312 86.2901C122.225 84.9285 122.638 83.582 123.472 82.5025L125.666 79.462C125.31 78.7131 124.986 77.9497 124.694 77.1737L120.933 76.5468C119.598 76.3519 118.377 75.6851 117.491 74.6672C116.606 73.6493 116.114 72.3477 116.106 70.9985V62.6918C116.095 61.3241 116.587 60.0001 117.489 58.9715C118.39 57.9428 119.638 57.2812 120.996 57.1122L124.694 56.4852C124.976 55.7097 125.29 54.9463 125.635 54.197L123.441 51.1251C122.614 50.0757 122.201 48.7596 122.281 47.4262C122.372 46.052 122.963 44.7587 123.942 43.7901L129.804 37.897C130.798 36.927 132.115 36.3578 133.503 36.2983C134.855 36.218 136.192 36.63 137.264 37.4582L140.242 39.5897C141.001 39.243 141.775 38.9292 142.562 38.6493L143.189 34.9191C143.383 33.5893 144.045 32.3724 145.056 31.4875C146.068 30.6025 147.362 30.1076 148.706 30.0918H157.012C158.375 30.089 159.691 30.5848 160.713 31.4855C161.735 32.3863 162.392 33.6299 162.561 34.9818L163.188 38.6806C163.963 38.9629 164.726 39.2767 165.476 39.621L168.485 37.4895C169.545 36.6342 170.888 36.209 172.247 36.2983C173.594 36.3924 174.911 36.9253 175.914 37.9283L181.807 43.7901C182.782 44.7574 183.365 46.0501 183.446 47.4207C183.527 48.7914 183.1 50.1438 182.246 51.2191L180.083 54.2283C180.43 54.9877 180.743 55.7616 181.023 56.5479H181.055ZM152.875 82.8787C150.774 82.8828 148.693 82.4721 146.752 81.6702C144.811 80.8683 143.047 79.6909 141.561 78.2056C140.076 76.7202 138.899 74.9563 138.097 73.0148C137.295 71.0734 136.884 68.9927 136.888 66.8922C136.875 63.7266 137.803 60.6286 139.555 57.9923C141.308 55.3559 143.804 53.3004 146.728 52.0872C149.652 50.874 152.871 50.5579 155.975 51.1792C159.079 51.8005 161.928 53.3311 164.159 55.5762C166.402 57.8059 167.932 60.6521 168.555 63.7531C169.177 66.8541 168.863 70.0702 167.654 72.9927C166.445 75.9152 164.394 78.4124 161.763 80.167C159.131 81.9217 156.037 82.8546 152.875 82.8473V82.8787Z" fill="#FFC01E"/>
<path fill-rule="evenodd" clip-rule="evenodd" d="M152.875 44.0723C158.918 44.0723 164.715 46.4732 168.989 50.7469C173.262 55.0206 175.663 60.817 175.663 66.8609C175.663 72.9048 173.262 78.7012 168.989 82.9749C164.715 87.2486 158.918 89.6495 152.875 89.6495C146.831 89.6495 141.034 87.2486 136.761 82.9749C132.487 78.7012 130.086 72.9048 130.086 66.8609C130.086 60.817 132.487 55.0206 136.761 50.7469C141.034 46.4732 146.831 44.0723 152.875 44.0723ZM152.875 82.8788C150.774 82.8829 148.693 82.4722 146.752 81.6703C144.81 80.8683 143.046 79.6909 141.561 78.2056C140.076 76.7203 138.898 74.9563 138.097 73.0149C137.295 71.0735 136.884 68.9928 136.888 66.8922C136.875 63.7267 137.803 60.6287 139.555 57.9924C141.307 55.356 143.804 53.3005 146.728 52.0873C149.652 50.874 152.871 50.558 155.975 51.1793C159.079 51.8006 161.928 53.3311 164.159 55.5763C166.402 57.806 167.932 60.6521 168.555 63.7532C169.177 66.8542 168.863 70.0702 167.654 72.9928C166.445 75.9153 164.394 78.4125 161.763 80.1671C159.131 81.9218 156.037 82.8547 152.875 82.8474V82.8788Z" fill="#E6891C"/>
</g>
<defs>
<clipPath id="clip0_385_24601">
<rect width="214" height="214" fill="white"/>
</clipPath>
</defs>
</svg>
