<svg width="33" height="47" viewBox="0 0 33 47" fill="none" xmlns="http://www.w3.org/2000/svg">
<path d="M14.9448 19.3862C13.4688 19.3862 12.3026 18.1977 12.3026 16.7533C12.3026 15.2723 13.4688 14.0838 14.9448 14.0838C16.4026 14.0838 17.587 15.2723 17.587 16.7533C17.587 18.1977 16.4026 19.3862 14.9448 19.3862ZM14.9448 32.9163C13.4688 32.9163 12.3026 31.7278 12.3026 30.2651C12.3026 28.7841 13.4688 27.6139 14.9448 27.6139C16.4026 27.6139 17.587 28.8024 17.587 30.2651C17.587 31.7278 16.4026 32.9163 14.9448 32.9163Z" fill="#E1E7EA"/>
<path d="M29.5225 5.87435C28.0647 5.87435 26.8803 4.6859 26.8803 3.22319C26.8803 1.76047 28.0647 0.572021 29.5225 0.572021C30.9803 0.572021 32.1647 1.76047 32.1647 3.22319C32.1647 4.6859 30.9803 5.87435 29.5225 5.87435ZM29.5225 19.3862C28.0465 19.3862 26.8803 18.1977 26.8803 16.735C26.8803 15.254 28.0647 14.0838 29.5225 14.0838C30.9803 14.0838 32.1647 15.254 32.1647 16.735C32.1647 18.1977 30.9803 19.3862 29.5225 19.3862ZM29.5225 32.9162C28.0647 32.9162 26.8803 31.7278 26.8803 30.2651C26.8803 28.7841 28.0465 27.6139 29.5225 27.6139C30.9803 27.6139 32.1647 28.8024 32.1647 30.2651C32.1647 31.7095 30.9803 32.9162 29.5225 32.9162ZM29.5225 46.4463C28.0465 46.4463 26.8803 45.2579 26.8803 43.7952C26.8803 42.3142 28.0647 41.144 29.5225 41.144C30.9803 41.144 32.1647 42.3325 32.1647 43.7952C32.1647 45.2396 30.9803 46.4281 29.5225 46.4463Z" fill="#E1E7EA"/>
<path d="M2.66043 26.1512C1.18444 26.1512 0 24.9627 0 23.5C0 22.019 1.18444 20.8488 2.66043 20.8488C4.1182 20.8488 5.30263 22.0373 5.30263 23.5C5.30263 24.9627 4.09998 26.1512 2.66043 26.1512Z" fill="#E1E7EA"/>
</svg>
