<svg width="7" height="127" viewBox="0 0 7 127" fill="none" xmlns="http://www.w3.org/2000/svg">
<path d="M3.43078 5.30233C1.97301 5.30233 0.788574 4.11388 0.788574 2.65117C0.788574 1.18845 1.97301 0 3.43078 0C4.90677 0 6.09121 1.18845 6.09121 2.65117C6.09121 4.11388 4.90677 5.30233 3.43078 5.30233ZM3.43078 18.8324C1.97301 18.8324 0.788574 17.644 0.788574 16.1813C0.788574 14.7003 1.97301 13.5301 3.43078 13.5301C4.90677 13.5301 6.09121 14.7185 6.09121 16.1813C6.09121 17.644 4.90677 18.8324 3.43078 18.8324ZM3.43078 32.3442C1.97301 32.3442 0.788574 31.1741 0.788574 29.6931C0.788574 28.2303 1.99123 27.0419 3.43078 27.0419C4.90677 27.0419 6.09121 28.2303 6.09121 29.6931C6.09121 31.1741 4.90677 32.3442 3.43078 32.3442ZM3.43078 45.8743C1.97301 45.8743 0.788574 44.6859 0.788574 43.2231C0.788574 41.7604 1.97301 40.572 3.43078 40.572C4.90677 40.572 6.09121 41.7604 6.09121 43.2231C6.09121 44.6859 4.90677 45.8743 3.43078 45.8743ZM3.43078 59.4044C1.97301 59.4044 0.788574 58.216 0.788574 56.735C0.788574 55.2722 1.97301 54.0838 3.43078 54.1021C4.90677 54.1021 6.09121 55.2722 6.09121 56.735C6.09121 58.1977 4.90677 59.4044 3.43078 59.4044ZM3.43078 72.9162C1.97301 72.9162 0.788574 71.7278 0.788574 70.265C0.788574 68.784 1.97301 67.6139 3.43078 67.6139C4.90677 67.6139 6.09121 68.8023 6.09121 70.265C6.09121 71.7095 4.90677 72.9162 3.43078 72.9162ZM3.43078 86.428C1.97301 86.428 0.788574 85.2396 0.788574 83.7768C0.788574 82.3141 1.97301 81.1257 3.43078 81.1257C4.90677 81.1257 6.09121 82.3141 6.09121 83.7951C6.07299 85.2396 4.90677 86.4463 3.43078 86.428ZM3.43078 99.9581C1.97301 99.9581 0.788574 98.7879 0.788574 97.3069C0.788574 95.8442 1.97301 94.6558 3.43078 94.6558C4.90677 94.6558 6.09121 95.8442 6.09121 97.3069C6.09121 98.7697 4.90677 99.9581 3.43078 99.9581ZM3.43078 113.47C1.97301 113.47 0.788574 112.281 0.788574 110.819C0.788574 109.356 1.97301 108.168 3.43078 108.168C4.90677 108.168 6.09121 109.356 6.09121 110.819C6.09121 112.3 4.90677 113.47 3.43078 113.47ZM3.43078 127C1.97301 127 0.788574 125.812 0.788574 124.349C0.788574 122.868 1.97301 121.679 3.43078 121.679C4.90677 121.679 6.09121 122.868 6.09121 124.349C6.09121 125.812 4.90677 127 3.43078 127Z" fill="#E1E7EA"/>
</svg>
