<svg width="4" height="59" viewBox="0 0 4 59" fill="none" xmlns="http://www.w3.org/2000/svg">
<path d="M1.74487 3.21997C0.884506 3.21997 0.204714 2.52722 0.204714 1.67459C0.204714 0.821968 0.895128 0.129211 1.74487 0.129211C2.59461 0.129211 3.28503 0.821968 3.28503 1.67459C3.28503 2.52722 2.59461 3.21997 1.74487 3.21997ZM1.74487 11.0961C0.884506 11.0961 0.204714 10.414 0.204714 9.5507C0.204714 8.69808 0.895128 8.00532 1.74487 8.00532C2.59461 8.00532 3.28503 8.69808 3.28503 9.5507C3.28503 10.414 2.59461 11.0961 1.74487 11.0961ZM1.74487 18.9828C0.884506 18.9828 0.204714 18.2901 0.204714 17.4375C0.204714 16.5848 0.895128 15.8921 1.74487 15.8921C2.59461 15.8921 3.28503 16.5848 3.28503 17.4375C3.28503 18.2901 2.59461 18.9828 1.74487 18.9828ZM1.74487 26.8696C0.884506 26.8696 0.204714 26.1769 0.204714 25.3242C0.204714 24.461 0.895128 23.7682 1.74487 23.7682C2.59461 23.7682 3.28503 24.461 3.28503 25.3242C3.28503 26.1662 2.59461 26.8696 1.74487 26.8696ZM1.74487 34.7457C0.884506 34.7457 0.204714 34.0423 0.204714 33.2003C0.204714 32.3371 0.895128 31.655 1.74487 31.655C2.59461 31.655 3.28503 32.3477 3.28503 33.2003C3.28503 34.0423 2.59461 34.7457 1.74487 34.7457ZM1.74487 42.6218C0.884506 42.6218 0.204714 41.9291 0.204714 41.0765C0.204714 40.2132 0.895128 39.5204 1.74487 39.5204C2.59461 39.5204 3.28503 40.2132 3.28503 41.0658C3.28503 41.9291 2.59461 42.6218 1.74487 42.6218ZM1.73425 50.5086C0.884506 50.5086 0.194092 49.8265 0.194092 48.9632C0.194092 48.1106 0.884506 47.4178 1.73425 47.4178C2.58399 47.4178 3.27441 48.1213 3.27441 48.9632C3.28503 49.8158 2.59461 50.5086 1.73425 50.5086ZM1.74487 58.3847C0.884506 58.3847 0.204714 57.692 0.204714 56.8393C0.204714 55.9867 0.895128 55.2939 1.74487 55.2939C2.59461 55.2939 3.28503 55.9867 3.28503 56.8393C3.28503 57.7026 2.59461 58.3847 1.74487 58.3847Z" fill="#E1E7EA"/>
</svg>
