<svg width="6" height="73" viewBox="0 0 6 73" fill="none" xmlns="http://www.w3.org/2000/svg">
<path d="M2.6422 5.34433C1.18444 5.34433 0 4.17415 0 2.69316C0 1.23045 1.18444 0.0419922 2.6422 0.0419922C4.1182 0.0419922 5.30263 1.23045 5.28441 2.69316C5.28441 4.17415 4.1182 5.34433 2.6422 5.34433ZM2.6422 18.8744C1.18444 18.8744 0 17.686 0 16.2232C0 14.7605 1.18444 13.5721 2.6422 13.5721C4.1182 13.5721 5.28441 14.7605 5.28441 16.2232C5.28441 17.686 4.1182 18.8744 2.6422 18.8744ZM2.6422 32.4045C1.18444 32.4045 0 31.216 0 29.7533C0 28.2723 1.18444 27.1022 2.6422 27.1022C4.1182 27.1022 5.28441 28.2723 5.28441 29.7533C5.28441 31.1978 4.1182 32.4045 2.6422 32.4045ZM2.6422 45.9163C1.18444 45.9163 0 44.7279 0 43.2651C0 41.7841 1.18444 40.614 2.6422 40.614C4.09997 40.614 5.28441 41.8024 5.28441 43.2651C5.28441 44.7279 4.1182 45.9163 2.6422 45.9163ZM2.6422 59.4464C1.18444 59.4464 0 58.2579 0 56.7952C0 55.3142 1.18444 54.1258 2.6422 54.1258C4.1182 54.1258 5.28441 55.3142 5.28441 56.7952C5.28441 58.2397 4.1182 59.4464 2.6422 59.4464ZM2.6422 72.9582C1.18444 72.9582 0 71.7515 0 70.307C0 68.8443 1.18444 67.6559 2.6422 67.6559C4.1182 67.6559 5.28441 68.8443 5.28441 70.307C5.28441 71.7515 4.1182 72.9582 2.6422 72.9582Z" fill="#E1E7EA"/>
</svg>
