<svg width="4" height="75" viewBox="0 0 4 75" fill="none" xmlns="http://www.w3.org/2000/svg">
<path d="M2.44616 3.33319C1.59642 3.33319 0.906006 2.64043 0.906006 1.78781C0.906006 0.935188 1.59642 0.242432 2.44616 0.242432C3.30653 0.242432 3.99694 0.935188 3.99694 1.78781C3.99694 2.64043 3.30653 3.33319 2.44616 3.33319ZM2.44616 11.22C1.59642 11.22 0.906006 10.5272 0.906006 9.67458C0.906006 8.8113 1.59642 8.1292 2.44616 8.1292C3.30653 8.1292 3.99694 8.82195 3.99694 9.67458C3.99694 10.5272 3.30653 11.22 2.44616 11.22ZM2.44616 19.0961C1.59642 19.0961 0.906006 18.414 0.906006 17.5507C0.906006 16.6981 1.60704 16.0053 2.44616 16.0053C3.30653 16.0053 3.99694 16.6981 3.99694 17.5507C3.99694 18.414 3.30653 19.0961 2.44616 19.0961ZM2.44616 26.9828C1.59642 26.9828 0.906006 26.2901 0.906006 25.4375C0.906006 24.5848 1.59642 23.8921 2.44616 23.8921C3.30653 23.8921 3.99694 24.5848 3.99694 25.4375C3.99694 26.2901 3.30653 26.9828 2.44616 26.9828ZM2.44616 34.8696C1.59642 34.8696 0.906006 34.1768 0.906006 33.3136C0.906006 32.4609 1.59642 31.7682 2.44616 31.7788C3.30653 31.7788 3.99694 32.4609 3.99694 33.3136C3.99694 34.1662 3.30653 34.8696 2.44616 34.8696ZM2.44616 42.7457C1.59642 42.7457 0.906006 42.053 0.906006 41.2003C0.906006 40.337 1.59642 39.6549 2.44616 39.6549C3.30653 39.6549 3.99694 40.3477 3.99694 41.2003C3.99694 42.0423 3.30653 42.7457 2.44616 42.7457ZM2.44616 50.6218C1.59642 50.6218 0.906006 49.9291 0.906006 49.0764C0.906006 48.2238 1.59642 47.5311 2.44616 47.5311C3.30653 47.5311 3.99694 48.2238 3.99694 49.0871C3.98632 49.9291 3.30653 50.6325 2.44616 50.6218ZM2.44616 58.5086C1.59642 58.5086 0.906006 57.8265 0.906006 56.9632C0.906006 56.1106 1.59642 55.4178 2.44616 55.4178C3.30653 55.4178 3.99694 56.1106 3.99694 56.9632C3.99694 57.8158 3.30653 58.5086 2.44616 58.5086ZM2.44616 66.3847C1.59642 66.3847 0.906006 65.6919 0.906006 64.8393C0.906006 63.9867 1.59642 63.2939 2.44616 63.2939C3.30653 63.2939 3.99694 63.9867 3.99694 64.8393C3.99694 65.7026 3.30653 66.3847 2.44616 66.3847ZM2.44616 74.2715C1.59642 74.2715 0.906006 73.5787 0.906006 72.7261C0.906006 71.8628 1.59642 71.17 2.44616 71.17C3.30653 71.17 3.99694 71.8628 3.99694 72.7261C3.99694 73.5787 3.30653 74.2715 2.44616 74.2715Z" fill="#E1E7EA"/>
</svg>
