<svg width="6" height="101" viewBox="0 0 6 101" fill="none" xmlns="http://www.w3.org/2000/svg">
<path d="M3.21975 5.83236C1.74376 5.83236 0.577549 4.64391 0.577549 3.1812C0.577549 1.71848 1.76198 0.530029 3.21975 0.530029C4.67752 0.530029 5.86196 1.71848 5.86196 3.1812C5.86196 4.64391 4.67752 5.83236 3.21975 5.83236ZM3.21975 19.3442C1.74376 19.3442 0.577549 18.174 0.577549 16.693C0.577549 15.2303 1.76198 14.0418 3.21975 14.0418C4.67752 14.0418 5.86196 15.2303 5.86196 16.693C5.86196 18.174 4.67752 19.3442 3.21975 19.3442ZM3.21975 32.8743C1.74376 32.8743 0.577549 31.6858 0.577549 30.2231C0.577549 28.7604 1.76198 27.5719 3.21975 27.5719C4.67752 27.5719 5.86196 28.7604 5.86196 30.2231C5.86196 31.6858 4.67752 32.8743 3.21975 32.8743ZM3.21975 46.4043C1.74376 46.4043 0.577549 45.2159 0.577549 43.7532C0.577549 42.2722 1.76198 41.0837 3.21975 41.0837C4.67752 41.0837 5.86196 42.2722 5.86196 43.7532C5.86196 45.1976 4.67752 46.4043 3.21975 46.4043ZM3.21975 59.9161C1.74376 59.9161 0.577549 58.7094 0.577549 57.265C0.577549 55.784 1.76198 54.6138 3.21975 54.6138C4.67752 54.6138 5.86196 55.8023 5.86196 57.265C5.86196 58.7094 4.67752 59.9161 3.21975 59.9161ZM3.21975 73.4279C1.74376 73.4279 0.577549 72.2395 0.577549 70.7768C0.577549 69.2958 1.76198 68.1073 3.21975 68.1073C4.67752 68.1073 5.86196 69.2958 5.86196 70.7585C5.86196 72.2395 4.67752 73.4279 3.21975 73.4279ZM3.20153 86.958C1.74376 86.958 0.559326 85.7879 0.559326 84.3069C0.559326 82.8442 1.74376 81.6557 3.20153 81.6557C4.6593 81.6557 5.84374 82.8624 5.84374 84.3069C5.86196 85.7696 4.67752 86.958 3.20153 86.958ZM3.21975 100.47C1.74376 100.47 0.577549 99.2814 0.577549 97.8187C0.577549 96.356 1.76198 95.1675 3.21975 95.1675C4.67752 95.1675 5.86196 96.356 5.86196 97.8187C5.86196 99.2997 4.67752 100.47 3.21975 100.47Z" fill="#E1E7EA"/>
</svg>
