<svg width="4" height="43" viewBox="0 0 4 43" fill="none" xmlns="http://www.w3.org/2000/svg">
<path d="M2.24792 3.09625C1.39818 3.09625 0.707764 2.41415 0.707764 1.55087C0.707764 0.69825 1.39818 0.00549316 2.24792 0.00549316C3.10828 0.00549316 3.7987 0.69825 3.78808 1.55087C3.78808 2.41415 3.10828 3.09625 2.24792 3.09625ZM2.24792 10.983C1.39818 10.983 0.707764 10.2903 0.707764 9.43764C0.707764 8.58502 1.39818 7.89226 2.24792 7.89226C3.10828 7.89226 3.78808 8.58502 3.78808 9.43764C3.78808 10.2903 3.10828 10.983 2.24792 10.983ZM2.24792 18.8698C1.39818 18.8698 0.707764 18.177 0.707764 17.3244C0.707764 16.4611 1.39818 15.779 2.24792 15.779C3.10828 15.779 3.78808 16.4611 3.78808 17.3244C3.78808 18.1664 3.10828 18.8698 2.24792 18.8698ZM2.24792 26.7459C1.39818 26.7459 0.707764 26.0531 0.707764 25.2005C0.707764 24.3372 1.39818 23.6551 2.24792 23.6551C3.09766 23.6551 3.78808 24.3479 3.78808 25.2005C3.78808 26.0531 3.10828 26.7459 2.24792 26.7459ZM2.24792 34.6327C1.39818 34.6327 0.707764 33.9399 0.707764 33.0873C0.707764 32.224 1.39818 31.5312 2.24792 31.5312C3.10828 31.5312 3.78808 32.224 3.78808 33.0873C3.78808 33.9292 3.10828 34.6327 2.24792 34.6327ZM2.24792 42.5088C1.39818 42.5088 0.707764 41.8054 0.707764 40.9634C0.707764 40.1108 1.39818 39.418 2.24792 39.418C3.10828 39.418 3.78808 40.1108 3.78808 40.9634C3.78808 41.8054 3.10828 42.5088 2.24792 42.5088Z" fill="#E1E7EA"/>
</svg>
