<svg width="272" height="100" viewBox="0 0 272 100" fill="none" xmlns="http://www.w3.org/2000/svg">
<path d="M249.042 26.1522L226.35 44.2658L203.659 26.1522L180.968 44.2658L158.25 26.1522L135.96 43.9443V43.9711L135.773 44.105L113.082 26.0182L90.3905 44.105L67.6993 26.0182L44.9814 44.105L22.2903 26.0182L0 43.7835V47.3205L22.2903 29.5284L44.9814 47.642L67.6993 29.5284L90.3905 47.642L113.082 29.5284L135.773 47.642L136.04 47.4277V47.4009L158.25 29.6892L180.968 47.776L203.659 29.6892L226.35 47.776L249.042 29.6892L271.733 47.776L272 47.5616V44.0514L271.733 44.2658L249.042 26.1522Z" fill="white"/>
<path d="M271.733 18.2476L249.042 0.133976L226.35 18.2476L203.659 0.133976L180.968 18.2476L158.25 0.133976L135.96 17.926V17.9528L135.773 18.0868L113.082 0L90.3905 18.0868L67.6993 0L44.9814 18.0868L22.2903 0L0 17.7921V21.3023L22.2903 3.51018L44.9814 21.6238L67.6993 3.51018L90.3905 21.6238L113.082 3.51018L135.773 21.6238L136.04 21.4094V21.3826L158.25 3.67095L180.968 21.7578L203.659 3.67095L226.35 21.7578L249.042 3.67095L271.733 21.7578L272 21.5434V18.0332L271.733 18.2476Z" fill="white"/>
<path d="M249.042 78.403L226.35 96.4898L203.659 78.403L180.968 96.4898L158.25 78.403L135.96 96.1683V96.1951L135.773 96.3559L113.082 78.2422L90.3905 96.3559L67.6993 78.2422L44.9814 96.3559L22.2903 78.2422L0 96.0343V99.5445L22.2903 81.7524L44.9814 99.866L67.6993 81.7524L90.3905 99.866L113.082 81.7524L135.773 99.866L136.04 99.6517V99.6249L158.25 81.9132L180.968 100L203.659 81.9132L226.35 100L249.042 81.9132L271.733 100L272 99.8125V96.2755L271.733 96.4898L249.042 78.403Z" fill="white"/>
<path d="M249.042 52.3848L226.35 70.4716L203.659 52.3848L180.968 70.4716L158.25 52.3848L135.96 70.15V70.1768L135.773 70.3376L113.082 52.224L90.3905 70.3376L67.6993 52.224L44.9814 70.3376L22.2903 52.224L0 70.0161V73.5263L22.2903 55.761L44.9814 73.8478L67.6993 55.761L90.3905 73.8478L113.082 55.761L135.773 73.8478L136.04 73.6334V73.6066L158.25 55.895L180.968 73.9818L203.659 55.895L226.35 73.9818L249.042 55.895L271.733 73.9818L272 73.7942V70.284L271.733 70.4716L249.042 52.3848Z" fill="white"/>
</svg>
