<svg width="1024" height="1024" viewBox="0 0 1024 1024" fill="none" xmlns="http://www.w3.org/2000/svg">
<path d="M679.625 835.595L374.916 530.887L548.182 976L679.625 835.595Z" fill="url(#paint0_linear_149_427)"/>
<path d="M228.609 47L587.09 390.544L237.571 303.911L228.609 47Z" fill="url(#paint1_linear_149_427)"/>
<path d="M584.043 387.441L751.334 497.973L527.284 683.188L374.929 530.834L584.043 387.441Z" fill="url(#paint2_linear_149_427)"/>
<path d="M724.408 480.205L846.889 375.648L584.003 387.598L724.408 480.205Z" fill="url(#paint3_linear_149_427)"/>
<path d="M584.02 387.516L694.551 276.984L918.602 372.579L584.02 387.516Z" fill="#35BDF6"/>
<path d="M106 235.174L583.975 387.528L374.861 530.92L106 235.174Z" fill="url(#paint4_linear_149_427)"/>
<path d="M339.098 826.633L374.946 530.887L401.832 859.494L339.098 826.633Z" fill="url(#paint5_linear_149_427)"/>
<path d="M405.148 910.382L375.09 530.93L506.321 865.576L405.148 910.382Z" fill="url(#paint6_linear_149_427)"/>
<path d="M861.842 348.768L918.602 372.666L846.905 375.654L861.842 348.768Z" fill="#FFE600"/>
<defs>
<linearGradient id="paint0_linear_149_427" x1="527.271" y1="530.887" x2="527.271" y2="976" gradientUnits="userSpaceOnUse">
<stop stop-color="#FFEC02"/>
<stop offset="1" stop-color="#FFDC0F"/>
</linearGradient>
<linearGradient id="paint1_linear_149_427" x1="407.85" y1="47" x2="542.28" y2="372.62" gradientUnits="userSpaceOnUse">
<stop stop-color="#30B7F3"/>
<stop offset="1" stop-color="#45D0FF"/>
</linearGradient>
<linearGradient id="paint2_linear_149_427" x1="601.967" y1="318.733" x2="464.549" y2="805.669" gradientUnits="userSpaceOnUse">
<stop offset="0.132906" stop-color="#45D0FF"/>
<stop offset="0.901042" stop-color="#2CB3EC"/>
</linearGradient>
<linearGradient id="paint3_linear_149_427" x1="729.615" y1="377.734" x2="710.718" y2="462.769" gradientUnits="userSpaceOnUse">
<stop offset="0.0732198" stop-color="#30B8F4"/>
<stop offset="0.89363" stop-color="#40CAFD"/>
</linearGradient>
<linearGradient id="paint4_linear_149_427" x1="106" y1="265.047" x2="500.329" y2="656.389" gradientUnits="userSpaceOnUse">
<stop stop-color="#FFED00"/>
<stop offset="0.728061" stop-color="#FFD910"/>
</linearGradient>
<linearGradient id="paint5_linear_149_427" x1="370.465" y1="530.887" x2="370.465" y2="859.494" gradientUnits="userSpaceOnUse">
<stop stop-color="#FFEC02"/>
<stop offset="1" stop-color="#FFDC0F"/>
</linearGradient>
<linearGradient id="paint6_linear_149_427" x1="329.583" y1="547.806" x2="456.922" y2="891.182" gradientUnits="userSpaceOnUse">
<stop stop-color="#38C1F8"/>
<stop offset="0.989583" stop-color="#44CFFF"/>
</linearGradient>
</defs>
</svg>
