<svg width="128" height="128" viewBox="0 0 128 128" fill="none" xmlns="http://www.w3.org/2000/svg">
<rect width="128" height="128" fill="white"/>
<path d="M84.7734 103.921L47.7101 66.8574L68.7853 120.999L84.7734 103.921Z" fill="url(#paint0_linear_149_427)"/>
<path d="M29.9136 8L73.5176 49.7872L31.0037 39.2495L29.9136 8Z" fill="url(#paint1_linear_149_427)"/>
<path d="M73.1476 49.4102L93.4961 62.8547L66.2436 85.3834L47.7119 66.8518L73.1476 49.4102Z" fill="url(#paint2_linear_149_427)"/>
<path d="M90.2211 60.6924L105.119 47.9746L73.1429 49.4281L90.2211 60.6924Z" fill="url(#paint3_linear_149_427)"/>
<path d="M73.1447 49.4192L86.5893 35.9746L113.842 47.6023L73.1447 49.4192Z" fill="#35BDF6"/>
<path d="M15 30.8887L73.1387 49.4204L47.703 66.862L15 30.8887Z" fill="url(#paint4_linear_149_427)"/>
<path d="M43.3537 102.831L47.7141 66.8574L50.9844 106.828L43.3537 102.831Z" fill="url(#paint5_linear_149_427)"/>
<path d="M51.3879 113.018L47.7318 66.8628L63.6941 107.568L51.3879 113.018Z" fill="url(#paint6_linear_149_427)"/>
<path d="M106.938 44.7051L113.842 47.612L105.121 47.9754L106.938 44.7051Z" fill="#FFE600"/>
<defs>
<linearGradient id="paint0_linear_149_427" x1="66.2417" y1="66.8574" x2="66.2417" y2="120.999" gradientUnits="userSpaceOnUse">
<stop stop-color="#FFEC02"/>
<stop offset="1" stop-color="#FFDC0F"/>
</linearGradient>
<linearGradient id="paint1_linear_149_427" x1="51.7156" y1="8" x2="68.0671" y2="47.607" gradientUnits="userSpaceOnUse">
<stop stop-color="#30B7F3"/>
<stop offset="1" stop-color="#45D0FF"/>
</linearGradient>
<linearGradient id="paint2_linear_149_427" x1="75.3278" y1="41.0527" x2="58.6129" y2="100.281" gradientUnits="userSpaceOnUse">
<stop offset="0.132906" stop-color="#45D0FF"/>
<stop offset="0.901042" stop-color="#2CB3EC"/>
</linearGradient>
<linearGradient id="paint3_linear_149_427" x1="90.8545" y1="48.2283" x2="88.556" y2="58.5715" gradientUnits="userSpaceOnUse">
<stop offset="0.0732198" stop-color="#30B8F4"/>
<stop offset="0.89363" stop-color="#40CAFD"/>
</linearGradient>
<linearGradient id="paint4_linear_149_427" x1="15" y1="34.5223" x2="62.9644" y2="82.1234" gradientUnits="userSpaceOnUse">
<stop stop-color="#FFED00"/>
<stop offset="0.728061" stop-color="#FFD910"/>
</linearGradient>
<linearGradient id="paint5_linear_149_427" x1="47.169" y1="66.8574" x2="47.169" y2="106.828" gradientUnits="userSpaceOnUse">
<stop stop-color="#FFEC02"/>
<stop offset="1" stop-color="#FFDC0F"/>
</linearGradient>
<linearGradient id="paint6_linear_149_427" x1="42.1966" y1="68.9155" x2="57.6855" y2="110.682" gradientUnits="userSpaceOnUse">
<stop stop-color="#38C1F8"/>
<stop offset="0.989583" stop-color="#44CFFF"/>
</linearGradient>
</defs>
</svg>
