<svg width="64" height="64" viewBox="0 0 64 64" fill="none" xmlns="http://www.w3.org/2000/svg">
<rect width="64" height="64" fill="white"/>
<path d="M41.4727 50.6419L24.2233 33.3926L34.0318 58.5902L41.4727 50.6419Z" fill="url(#paint0_linear_149_427)"/>
<path d="M15.941 6L36.2344 25.4478L16.4483 20.5436L15.941 6Z" fill="url(#paint1_linear_149_427)"/>
<path d="M36.063 25.2734L45.5332 31.5306L32.8498 42.0155L24.2252 33.3908L36.063 25.2734Z" fill="url(#paint2_linear_149_427)"/>
<path d="M44.0078 30.5224L50.9414 24.6035L36.0596 25.28L44.0078 30.5224Z" fill="url(#paint3_linear_149_427)"/>
<path d="M36.0615 25.2767L42.3186 19.0195L55.002 24.4311L36.0615 25.2767Z" fill="#35BDF6"/>
<path d="M9.00076 16.6523L36.0586 25.277L24.2208 33.3944L9.00076 16.6523Z" fill="url(#paint4_linear_149_427)"/>
<path d="M22.1967 50.1346L24.226 33.3926L25.748 51.9948L22.1967 50.1346Z" fill="url(#paint5_linear_149_427)"/>
<path d="M25.9347 54.8758L24.2331 33.3953L31.662 52.3394L25.9347 54.8758Z" fill="url(#paint6_linear_149_427)"/>
<path d="M51.7888 23.082L55.002 24.4349L50.9433 24.604L51.7888 23.082Z" fill="#FFE600"/>
<defs>
<linearGradient id="paint0_linear_149_427" x1="32.848" y1="33.3926" x2="32.848" y2="58.5902" gradientUnits="userSpaceOnUse">
<stop stop-color="#FFEC02"/>
<stop offset="1" stop-color="#FFDC0F"/>
</linearGradient>
<linearGradient id="paint1_linear_149_427" x1="26.0877" y1="6" x2="33.6977" y2="24.4331" gradientUnits="userSpaceOnUse">
<stop stop-color="#30B7F3"/>
<stop offset="1" stop-color="#45D0FF"/>
</linearGradient>
<linearGradient id="paint2_linear_149_427" x1="37.0776" y1="21.3839" x2="29.2985" y2="48.949" gradientUnits="userSpaceOnUse">
<stop offset="0.132906" stop-color="#45D0FF"/>
<stop offset="0.901042" stop-color="#2CB3EC"/>
</linearGradient>
<linearGradient id="paint3_linear_149_427" x1="44.3026" y1="24.7216" x2="43.2329" y2="29.5353" gradientUnits="userSpaceOnUse">
<stop offset="0.0732198" stop-color="#30B8F4"/>
<stop offset="0.89363" stop-color="#40CAFD"/>
</linearGradient>
<linearGradient id="paint4_linear_149_427" x1="9.00076" y1="18.3435" x2="31.3235" y2="40.4971" gradientUnits="userSpaceOnUse">
<stop stop-color="#FFED00"/>
<stop offset="0.728061" stop-color="#FFD910"/>
</linearGradient>
<linearGradient id="paint5_linear_149_427" x1="23.9724" y1="33.3926" x2="23.9724" y2="51.9948" gradientUnits="userSpaceOnUse">
<stop stop-color="#FFEC02"/>
<stop offset="1" stop-color="#FFDC0F"/>
</linearGradient>
<linearGradient id="paint6_linear_149_427" x1="21.657" y1="34.3506" x2="28.8656" y2="53.7889" gradientUnits="userSpaceOnUse">
<stop stop-color="#38C1F8"/>
<stop offset="0.989583" stop-color="#44CFFF"/>
</linearGradient>
</defs>
</svg>
