<svg width="16" height="16" viewBox="0 0 16 16" fill="none" xmlns="http://www.w3.org/2000/svg">
    <rect width="16" height="16" rx="4" fill="#FFFFFF"/>
    <path d="M10.6406 12.8845L6.04905 8.29297L8.65994 15.0003L10.6406 12.8845Z" fill="#000"/>
    <path d="M3.84814 1L9.25 6.17678L3.98319 4.87133L3.84814 1Z" fill="#000"/>
    <path d="M9.20179 6.13281L11.7227 7.79839L8.34649 10.5893L6.0507 8.29356L9.20179 6.13281Z" fill="#000"/>
    <path d="M11.3204 7.52671L13.166 5.95117L9.20465 6.13123L11.3204 7.52671Z" fill="#000"/>
    <path d="M9.20241 6.13042L10.868 4.46484L14.2441 5.90534L9.20241 6.13042Z" fill="#000"/>
    <path d="M2.00065 3.83398L9.20312 6.12977L6.05204 8.29052L2.00065 3.83398Z" fill="#000"/>
    <path d="M5.51366 12.7495L6.05384 8.29297L6.45898 13.2447L5.51366 12.7495Z" fill="#000"/>
    <path d="M6.50693 14.0068L6.05399 8.28893L8.03148 13.3316L6.50693 14.0068Z" fill="#000"/>
    <path d="M13.3888 5.54883L14.2441 5.90895L13.1638 5.95397L13.3888 5.54883Z" fill="#000"/>
</svg>